<?xml version="1.0" encoding="UTF-8" standalone="no"?>
<svg width="500.944mm" height="287.161mm"
 viewBox="0 0 1420 814"
 xmlns="http://www.w3.org/2000/svg" xmlns:xlink="http://www.w3.org/1999/xlink"  version="1.2" baseProfile="tiny">
<title>Qt SVG Document</title>
<desc>Generated with Qt</desc>
<defs>
</defs>
<g fill="none" stroke="black" stroke-width="1" fill-rule="evenodd" stroke-linecap="square" stroke-linejoin="bevel" >

<g fill="none" stroke="#000000" stroke-opacity="1" stroke-width="1" stroke-linecap="square" stroke-linejoin="bevel" transform="matrix(1,0,0,1,0,0)"
font-family="MS Shell Dlg 2" font-size="8.25" font-weight="400" font-style="normal" 
>
</g>

<g fill="none" stroke="#000000" stroke-opacity="1" stroke-width="1" stroke-linecap="square" stroke-linejoin="bevel" transform="matrix(1.00282,0,0,1.00282,0,0)"
font-family="MS Shell Dlg 2" font-size="8.25" font-weight="400" font-style="normal" 
>
</g>

<g fill="none" stroke="#a0a0a4" stroke-opacity="1" stroke-dasharray="0.5,1" stroke-dashoffset="0" stroke-width="0.5" stroke-linecap="round" stroke-linejoin="round" transform="matrix(1.00282,0,0,1.00282,0,0)"
font-family="MS Shell Dlg 2" font-size="8.25" font-weight="400" font-style="normal" 
>
<polyline fill="none" vector-effect="none" points="59.5,690.5 1394.5,690.5 " />
</g>

<g fill="none" stroke="#000000" stroke-opacity="1" stroke-width="1" stroke-linecap="round" stroke-linejoin="round" transform="matrix(1.00282,0,0,1.00282,0,0)"
font-family="MS Shell Dlg 2" font-size="8.25" font-weight="400" font-style="normal" 
>
<polyline fill="none" vector-effect="none" points="59.5,690.5 65.5,690.5 " />
<polyline fill="none" vector-effect="none" points="1394.5,690.5 1389.5,690.5 " />
</g>

<g fill="none" stroke="#000000" stroke-opacity="1" stroke-width="1" stroke-linecap="square" stroke-linejoin="bevel" transform="matrix(1.00282,0,0,1.00282,0,0)"
font-family="MS Shell Dlg 2" font-size="8.25" font-weight="400" font-style="normal" 
>
</g>

<g fill="none" stroke="#000000" stroke-opacity="1" stroke-width="1" stroke-linecap="square" stroke-linejoin="bevel" transform="matrix(1.00282,0,0,1.00282,43.1215,697.966)"
font-family="MS Shell Dlg 2" font-size="8.25" font-weight="400" font-style="normal" 
>
</g>

<g fill="none" stroke="#000000" stroke-opacity="1" stroke-width="1" stroke-linecap="square" stroke-linejoin="bevel" transform="matrix(1.00282,0,0,1.00282,43.1215,697.966)"
font-family="MS Shell Dlg 2" font-size="8.25" font-weight="400" font-style="normal" 
>
</g>

<g fill="none" stroke="#000000" stroke-opacity="1" stroke-width="1" stroke-linecap="square" stroke-linejoin="bevel" transform="matrix(1.00282,0,0,1.00282,43.1215,697.966)"
font-family="MS Shell Dlg 2" font-size="8.25" font-weight="400" font-style="normal" 
>
</g>

<g fill="none" stroke="#000000" stroke-opacity="1" stroke-width="1" stroke-linecap="square" stroke-linejoin="bevel" transform="matrix(1.00282,0,0,1.00282,43.1215,697.966)"
font-family="MS Shell Dlg 2" font-size="8.25" font-weight="400" font-style="normal" 
>
</g>

<g fill="none" stroke="#000000" stroke-opacity="1" stroke-width="1" stroke-linecap="square" stroke-linejoin="bevel" transform="matrix(1.00282,0,0,1.00282,43.1215,697.966)"
font-family="MS Shell Dlg 2" font-size="8.25" font-weight="400" font-style="normal" 
>
</g>

<g fill="none" stroke="#000000" stroke-opacity="1" stroke-width="1" stroke-linecap="square" stroke-linejoin="bevel" transform="matrix(1.00282,0,0,1.00282,43.1215,697.966)"
font-family="Sans" font-size="9" font-weight="400" font-style="normal" 
>
<text fill="#000000" fill-opacity="1" stroke="none" xml:space="preserve" x="0" y="0" font-family="Sans" font-size="9" font-weight="400" font-style="normal" 
 > 0</text>
</g>

<g fill="none" stroke="#000000" stroke-opacity="1" stroke-width="1" stroke-linecap="square" stroke-linejoin="bevel" transform="matrix(1.00282,0,0,1.00282,43.1215,697.966)"
font-family="MS Shell Dlg 2" font-size="8.25" font-weight="400" font-style="normal" 
>
</g>

<g fill="none" stroke="#000000" stroke-opacity="1" stroke-width="1" stroke-linecap="square" stroke-linejoin="bevel" transform="matrix(1.00282,0,0,1.00282,0,0)"
font-family="MS Shell Dlg 2" font-size="8.25" font-weight="400" font-style="normal" 
>
</g>

<g fill="none" stroke="#a0a0a4" stroke-opacity="1" stroke-dasharray="0.5,1" stroke-dashoffset="0" stroke-width="0.5" stroke-linecap="round" stroke-linejoin="round" transform="matrix(1.00282,0,0,1.00282,0,0)"
font-family="MS Shell Dlg 2" font-size="8.25" font-weight="400" font-style="normal" 
>
<polyline fill="none" vector-effect="none" points="59.5,545.5 1394.5,545.5 " />
</g>

<g fill="none" stroke="#000000" stroke-opacity="1" stroke-width="1" stroke-linecap="round" stroke-linejoin="round" transform="matrix(1.00282,0,0,1.00282,0,0)"
font-family="MS Shell Dlg 2" font-size="8.25" font-weight="400" font-style="normal" 
>
<polyline fill="none" vector-effect="none" points="59.5,545.5 65.5,545.5 " />
<polyline fill="none" vector-effect="none" points="1394.5,545.5 1389.5,545.5 " />
</g>

<g fill="none" stroke="#000000" stroke-opacity="1" stroke-width="1" stroke-linecap="square" stroke-linejoin="bevel" transform="matrix(1.00282,0,0,1.00282,0,0)"
font-family="MS Shell Dlg 2" font-size="8.25" font-weight="400" font-style="normal" 
>
</g>

<g fill="none" stroke="#000000" stroke-opacity="1" stroke-width="1" stroke-linecap="square" stroke-linejoin="bevel" transform="matrix(1.00282,0,0,1.00282,36.1017,552.556)"
font-family="MS Shell Dlg 2" font-size="8.25" font-weight="400" font-style="normal" 
>
</g>

<g fill="none" stroke="#000000" stroke-opacity="1" stroke-width="1" stroke-linecap="square" stroke-linejoin="bevel" transform="matrix(1.00282,0,0,1.00282,36.1017,552.556)"
font-family="MS Shell Dlg 2" font-size="8.25" font-weight="400" font-style="normal" 
>
</g>

<g fill="none" stroke="#000000" stroke-opacity="1" stroke-width="1" stroke-linecap="square" stroke-linejoin="bevel" transform="matrix(1.00282,0,0,1.00282,36.1017,552.556)"
font-family="MS Shell Dlg 2" font-size="8.25" font-weight="400" font-style="normal" 
>
</g>

<g fill="none" stroke="#000000" stroke-opacity="1" stroke-width="1" stroke-linecap="square" stroke-linejoin="bevel" transform="matrix(1.00282,0,0,1.00282,36.1017,552.556)"
font-family="MS Shell Dlg 2" font-size="8.25" font-weight="400" font-style="normal" 
>
</g>

<g fill="none" stroke="#000000" stroke-opacity="1" stroke-width="1" stroke-linecap="square" stroke-linejoin="bevel" transform="matrix(1.00282,0,0,1.00282,36.1017,552.556)"
font-family="MS Shell Dlg 2" font-size="8.25" font-weight="400" font-style="normal" 
>
</g>

<g fill="none" stroke="#000000" stroke-opacity="1" stroke-width="1" stroke-linecap="square" stroke-linejoin="bevel" transform="matrix(1.00282,0,0,1.00282,36.1017,552.556)"
font-family="Sans" font-size="9" font-weight="400" font-style="normal" 
>
<text fill="#000000" fill-opacity="1" stroke="none" xml:space="preserve" x="0" y="0" font-family="Sans" font-size="9" font-weight="400" font-style="normal" 
 > 50</text>
</g>

<g fill="none" stroke="#000000" stroke-opacity="1" stroke-width="1" stroke-linecap="square" stroke-linejoin="bevel" transform="matrix(1.00282,0,0,1.00282,36.1017,552.556)"
font-family="MS Shell Dlg 2" font-size="8.25" font-weight="400" font-style="normal" 
>
</g>

<g fill="none" stroke="#000000" stroke-opacity="1" stroke-width="1" stroke-linecap="square" stroke-linejoin="bevel" transform="matrix(1.00282,0,0,1.00282,0,0)"
font-family="MS Shell Dlg 2" font-size="8.25" font-weight="400" font-style="normal" 
>
</g>

<g fill="none" stroke="#a0a0a4" stroke-opacity="1" stroke-dasharray="0.5,1" stroke-dashoffset="0" stroke-width="0.5" stroke-linecap="round" stroke-linejoin="round" transform="matrix(1.00282,0,0,1.00282,0,0)"
font-family="MS Shell Dlg 2" font-size="8.25" font-weight="400" font-style="normal" 
>
<polyline fill="none" vector-effect="none" points="59.5,401.5 1394.5,401.5 " />
</g>

<g fill="none" stroke="#000000" stroke-opacity="1" stroke-width="1" stroke-linecap="round" stroke-linejoin="round" transform="matrix(1.00282,0,0,1.00282,0,0)"
font-family="MS Shell Dlg 2" font-size="8.25" font-weight="400" font-style="normal" 
>
<polyline fill="none" vector-effect="none" points="59.5,401.5 65.5,401.5 " />
<polyline fill="none" vector-effect="none" points="1394.5,401.5 1389.5,401.5 " />
</g>

<g fill="none" stroke="#000000" stroke-opacity="1" stroke-width="1" stroke-linecap="square" stroke-linejoin="bevel" transform="matrix(1.00282,0,0,1.00282,0,0)"
font-family="MS Shell Dlg 2" font-size="8.25" font-weight="400" font-style="normal" 
>
</g>

<g fill="none" stroke="#000000" stroke-opacity="1" stroke-width="1" stroke-linecap="square" stroke-linejoin="bevel" transform="matrix(1.00282,0,0,1.00282,29.0819,407.147)"
font-family="MS Shell Dlg 2" font-size="8.25" font-weight="400" font-style="normal" 
>
</g>

<g fill="none" stroke="#000000" stroke-opacity="1" stroke-width="1" stroke-linecap="square" stroke-linejoin="bevel" transform="matrix(1.00282,0,0,1.00282,29.0819,407.147)"
font-family="MS Shell Dlg 2" font-size="8.25" font-weight="400" font-style="normal" 
>
</g>

<g fill="none" stroke="#000000" stroke-opacity="1" stroke-width="1" stroke-linecap="square" stroke-linejoin="bevel" transform="matrix(1.00282,0,0,1.00282,29.0819,407.147)"
font-family="MS Shell Dlg 2" font-size="8.25" font-weight="400" font-style="normal" 
>
</g>

<g fill="none" stroke="#000000" stroke-opacity="1" stroke-width="1" stroke-linecap="square" stroke-linejoin="bevel" transform="matrix(1.00282,0,0,1.00282,29.0819,407.147)"
font-family="MS Shell Dlg 2" font-size="8.25" font-weight="400" font-style="normal" 
>
</g>

<g fill="none" stroke="#000000" stroke-opacity="1" stroke-width="1" stroke-linecap="square" stroke-linejoin="bevel" transform="matrix(1.00282,0,0,1.00282,29.0819,407.147)"
font-family="MS Shell Dlg 2" font-size="8.25" font-weight="400" font-style="normal" 
>
</g>

<g fill="none" stroke="#000000" stroke-opacity="1" stroke-width="1" stroke-linecap="square" stroke-linejoin="bevel" transform="matrix(1.00282,0,0,1.00282,29.0819,407.147)"
font-family="Sans" font-size="9" font-weight="400" font-style="normal" 
>
<text fill="#000000" fill-opacity="1" stroke="none" xml:space="preserve" x="0" y="0" font-family="Sans" font-size="9" font-weight="400" font-style="normal" 
 > 100</text>
</g>

<g fill="none" stroke="#000000" stroke-opacity="1" stroke-width="1" stroke-linecap="square" stroke-linejoin="bevel" transform="matrix(1.00282,0,0,1.00282,29.0819,407.147)"
font-family="MS Shell Dlg 2" font-size="8.25" font-weight="400" font-style="normal" 
>
</g>

<g fill="none" stroke="#000000" stroke-opacity="1" stroke-width="1" stroke-linecap="square" stroke-linejoin="bevel" transform="matrix(1.00282,0,0,1.00282,0,0)"
font-family="MS Shell Dlg 2" font-size="8.25" font-weight="400" font-style="normal" 
>
</g>

<g fill="none" stroke="#a0a0a4" stroke-opacity="1" stroke-dasharray="0.5,1" stroke-dashoffset="0" stroke-width="0.5" stroke-linecap="round" stroke-linejoin="round" transform="matrix(1.00282,0,0,1.00282,0,0)"
font-family="MS Shell Dlg 2" font-size="8.25" font-weight="400" font-style="normal" 
>
<polyline fill="none" vector-effect="none" points="59.5,256.5 1394.5,256.5 " />
</g>

<g fill="none" stroke="#000000" stroke-opacity="1" stroke-width="1" stroke-linecap="round" stroke-linejoin="round" transform="matrix(1.00282,0,0,1.00282,0,0)"
font-family="MS Shell Dlg 2" font-size="8.25" font-weight="400" font-style="normal" 
>
<polyline fill="none" vector-effect="none" points="59.5,256.5 65.5,256.5 " />
<polyline fill="none" vector-effect="none" points="1394.5,256.5 1389.5,256.5 " />
</g>

<g fill="none" stroke="#000000" stroke-opacity="1" stroke-width="1" stroke-linecap="square" stroke-linejoin="bevel" transform="matrix(1.00282,0,0,1.00282,0,0)"
font-family="MS Shell Dlg 2" font-size="8.25" font-weight="400" font-style="normal" 
>
</g>

<g fill="none" stroke="#000000" stroke-opacity="1" stroke-width="1" stroke-linecap="square" stroke-linejoin="bevel" transform="matrix(1.00282,0,0,1.00282,29.0819,262.74)"
font-family="MS Shell Dlg 2" font-size="8.25" font-weight="400" font-style="normal" 
>
</g>

<g fill="none" stroke="#000000" stroke-opacity="1" stroke-width="1" stroke-linecap="square" stroke-linejoin="bevel" transform="matrix(1.00282,0,0,1.00282,29.0819,262.74)"
font-family="MS Shell Dlg 2" font-size="8.25" font-weight="400" font-style="normal" 
>
</g>

<g fill="none" stroke="#000000" stroke-opacity="1" stroke-width="1" stroke-linecap="square" stroke-linejoin="bevel" transform="matrix(1.00282,0,0,1.00282,29.0819,262.74)"
font-family="MS Shell Dlg 2" font-size="8.25" font-weight="400" font-style="normal" 
>
</g>

<g fill="none" stroke="#000000" stroke-opacity="1" stroke-width="1" stroke-linecap="square" stroke-linejoin="bevel" transform="matrix(1.00282,0,0,1.00282,29.0819,262.74)"
font-family="MS Shell Dlg 2" font-size="8.25" font-weight="400" font-style="normal" 
>
</g>

<g fill="none" stroke="#000000" stroke-opacity="1" stroke-width="1" stroke-linecap="square" stroke-linejoin="bevel" transform="matrix(1.00282,0,0,1.00282,29.0819,262.74)"
font-family="MS Shell Dlg 2" font-size="8.25" font-weight="400" font-style="normal" 
>
</g>

<g fill="none" stroke="#000000" stroke-opacity="1" stroke-width="1" stroke-linecap="square" stroke-linejoin="bevel" transform="matrix(1.00282,0,0,1.00282,29.0819,262.74)"
font-family="Sans" font-size="9" font-weight="400" font-style="normal" 
>
<text fill="#000000" fill-opacity="1" stroke="none" xml:space="preserve" x="0" y="0" font-family="Sans" font-size="9" font-weight="400" font-style="normal" 
 > 150</text>
</g>

<g fill="none" stroke="#000000" stroke-opacity="1" stroke-width="1" stroke-linecap="square" stroke-linejoin="bevel" transform="matrix(1.00282,0,0,1.00282,29.0819,262.74)"
font-family="MS Shell Dlg 2" font-size="8.25" font-weight="400" font-style="normal" 
>
</g>

<g fill="none" stroke="#000000" stroke-opacity="1" stroke-width="1" stroke-linecap="square" stroke-linejoin="bevel" transform="matrix(1.00282,0,0,1.00282,0,0)"
font-family="MS Shell Dlg 2" font-size="8.25" font-weight="400" font-style="normal" 
>
</g>

<g fill="none" stroke="#a0a0a4" stroke-opacity="1" stroke-dasharray="0.5,1" stroke-dashoffset="0" stroke-width="0.5" stroke-linecap="round" stroke-linejoin="round" transform="matrix(1.00282,0,0,1.00282,0,0)"
font-family="MS Shell Dlg 2" font-size="8.25" font-weight="400" font-style="normal" 
>
<polyline fill="none" vector-effect="none" points="59.5,112.5 1394.5,112.5 " />
</g>

<g fill="none" stroke="#000000" stroke-opacity="1" stroke-width="1" stroke-linecap="round" stroke-linejoin="round" transform="matrix(1.00282,0,0,1.00282,0,0)"
font-family="MS Shell Dlg 2" font-size="8.25" font-weight="400" font-style="normal" 
>
<polyline fill="none" vector-effect="none" points="59.5,112.5 65.5,112.5 " />
<polyline fill="none" vector-effect="none" points="1394.5,112.5 1389.5,112.5 " />
</g>

<g fill="none" stroke="#000000" stroke-opacity="1" stroke-width="1" stroke-linecap="square" stroke-linejoin="bevel" transform="matrix(1.00282,0,0,1.00282,0,0)"
font-family="MS Shell Dlg 2" font-size="8.25" font-weight="400" font-style="normal" 
>
</g>

<g fill="none" stroke="#000000" stroke-opacity="1" stroke-width="1" stroke-linecap="square" stroke-linejoin="bevel" transform="matrix(1.00282,0,0,1.00282,29.0819,117.331)"
font-family="MS Shell Dlg 2" font-size="8.25" font-weight="400" font-style="normal" 
>
</g>

<g fill="none" stroke="#000000" stroke-opacity="1" stroke-width="1" stroke-linecap="square" stroke-linejoin="bevel" transform="matrix(1.00282,0,0,1.00282,29.0819,117.331)"
font-family="MS Shell Dlg 2" font-size="8.25" font-weight="400" font-style="normal" 
>
</g>

<g fill="none" stroke="#000000" stroke-opacity="1" stroke-width="1" stroke-linecap="square" stroke-linejoin="bevel" transform="matrix(1.00282,0,0,1.00282,29.0819,117.331)"
font-family="MS Shell Dlg 2" font-size="8.25" font-weight="400" font-style="normal" 
>
</g>

<g fill="none" stroke="#000000" stroke-opacity="1" stroke-width="1" stroke-linecap="square" stroke-linejoin="bevel" transform="matrix(1.00282,0,0,1.00282,29.0819,117.331)"
font-family="MS Shell Dlg 2" font-size="8.25" font-weight="400" font-style="normal" 
>
</g>

<g fill="none" stroke="#000000" stroke-opacity="1" stroke-width="1" stroke-linecap="square" stroke-linejoin="bevel" transform="matrix(1.00282,0,0,1.00282,29.0819,117.331)"
font-family="MS Shell Dlg 2" font-size="8.25" font-weight="400" font-style="normal" 
>
</g>

<g fill="none" stroke="#000000" stroke-opacity="1" stroke-width="1" stroke-linecap="square" stroke-linejoin="bevel" transform="matrix(1.00282,0,0,1.00282,29.0819,117.331)"
font-family="Sans" font-size="9" font-weight="400" font-style="normal" 
>
<text fill="#000000" fill-opacity="1" stroke="none" xml:space="preserve" x="0" y="0" font-family="Sans" font-size="9" font-weight="400" font-style="normal" 
 > 200</text>
</g>

<g fill="none" stroke="#000000" stroke-opacity="1" stroke-width="1" stroke-linecap="square" stroke-linejoin="bevel" transform="matrix(1.00282,0,0,1.00282,29.0819,117.331)"
font-family="MS Shell Dlg 2" font-size="8.25" font-weight="400" font-style="normal" 
>
</g>

<g fill="none" stroke="#000000" stroke-opacity="1" stroke-width="1" stroke-linecap="square" stroke-linejoin="bevel" transform="matrix(1.00282,0,0,1.00282,0,0)"
font-family="MS Shell Dlg 2" font-size="8.25" font-weight="400" font-style="normal" 
>
</g>

<g fill="none" stroke="#a0a0a4" stroke-opacity="1" stroke-dasharray="0.5,1" stroke-dashoffset="0" stroke-width="0.5" stroke-linecap="round" stroke-linejoin="round" transform="matrix(1.00282,0,0,1.00282,0,0)"
font-family="MS Shell Dlg 2" font-size="8.25" font-weight="400" font-style="normal" 
>
<polyline fill="none" vector-effect="none" points="158.5,765.5 158.5,42.5 " />
</g>

<g fill="none" stroke="#000000" stroke-opacity="1" stroke-width="1" stroke-linecap="round" stroke-linejoin="round" transform="matrix(1.00282,0,0,1.00282,0,0)"
font-family="MS Shell Dlg 2" font-size="8.25" font-weight="400" font-style="normal" 
>
<polyline fill="none" vector-effect="none" points="158.5,765.5 158.5,759.5 " />
<polyline fill="none" vector-effect="none" points="158.5,42.5 158.5,47.5 " />
</g>

<g fill="none" stroke="#000000" stroke-opacity="1" stroke-width="1" stroke-linecap="square" stroke-linejoin="bevel" transform="matrix(1.00282,0,0,1.00282,0,0)"
font-family="MS Shell Dlg 2" font-size="8.25" font-weight="400" font-style="normal" 
>
</g>

<g fill="none" stroke="#000000" stroke-opacity="1" stroke-width="1" stroke-linecap="square" stroke-linejoin="bevel" transform="matrix(1.00282,0,0,1.00282,153.432,786.215)"
font-family="MS Shell Dlg 2" font-size="8.25" font-weight="400" font-style="normal" 
>
</g>

<g fill="none" stroke="#000000" stroke-opacity="1" stroke-width="1" stroke-linecap="square" stroke-linejoin="bevel" transform="matrix(1.00282,0,0,1.00282,153.432,786.215)"
font-family="MS Shell Dlg 2" font-size="8.25" font-weight="400" font-style="normal" 
>
</g>

<g fill="none" stroke="#000000" stroke-opacity="1" stroke-width="1" stroke-linecap="square" stroke-linejoin="bevel" transform="matrix(1.00282,0,0,1.00282,153.432,786.215)"
font-family="MS Shell Dlg 2" font-size="8.25" font-weight="400" font-style="normal" 
>
</g>

<g fill="none" stroke="#000000" stroke-opacity="1" stroke-width="1" stroke-linecap="square" stroke-linejoin="bevel" transform="matrix(1.00282,0,0,1.00282,153.432,786.215)"
font-family="MS Shell Dlg 2" font-size="8.25" font-weight="400" font-style="normal" 
>
</g>

<g fill="none" stroke="#000000" stroke-opacity="1" stroke-width="1" stroke-linecap="square" stroke-linejoin="bevel" transform="matrix(1.00282,0,0,1.00282,153.432,786.215)"
font-family="MS Shell Dlg 2" font-size="8.25" font-weight="400" font-style="normal" 
>
</g>

<g fill="none" stroke="#000000" stroke-opacity="1" stroke-width="1" stroke-linecap="square" stroke-linejoin="bevel" transform="matrix(1.00282,0,0,1.00282,153.432,786.215)"
font-family="Sans" font-size="9" font-weight="400" font-style="normal" 
>
<text fill="#000000" fill-opacity="1" stroke="none" xml:space="preserve" x="0" y="0" font-family="Sans" font-size="9" font-weight="400" font-style="normal" 
 > 0</text>
</g>

<g fill="none" stroke="#000000" stroke-opacity="1" stroke-width="1" stroke-linecap="square" stroke-linejoin="bevel" transform="matrix(1.00282,0,0,1.00282,153.432,786.215)"
font-family="MS Shell Dlg 2" font-size="8.25" font-weight="400" font-style="normal" 
>
</g>

<g fill="none" stroke="#000000" stroke-opacity="1" stroke-width="1" stroke-linecap="square" stroke-linejoin="bevel" transform="matrix(1.00282,0,0,1.00282,0,0)"
font-family="MS Shell Dlg 2" font-size="8.25" font-weight="400" font-style="normal" 
>
</g>

<g fill="none" stroke="#a0a0a4" stroke-opacity="1" stroke-dasharray="0.5,1" stroke-dashoffset="0" stroke-width="0.5" stroke-linecap="round" stroke-linejoin="round" transform="matrix(1.00282,0,0,1.00282,0,0)"
font-family="MS Shell Dlg 2" font-size="8.25" font-weight="400" font-style="normal" 
>
<polyline fill="none" vector-effect="none" points="372.5,765.5 372.5,42.5 " />
</g>

<g fill="none" stroke="#000000" stroke-opacity="1" stroke-width="1" stroke-linecap="round" stroke-linejoin="round" transform="matrix(1.00282,0,0,1.00282,0,0)"
font-family="MS Shell Dlg 2" font-size="8.25" font-weight="400" font-style="normal" 
>
<polyline fill="none" vector-effect="none" points="372.5,765.5 372.5,759.5 " />
<polyline fill="none" vector-effect="none" points="372.5,42.5 372.5,47.5 " />
</g>

<g fill="none" stroke="#000000" stroke-opacity="1" stroke-width="1" stroke-linecap="square" stroke-linejoin="bevel" transform="matrix(1.00282,0,0,1.00282,0,0)"
font-family="MS Shell Dlg 2" font-size="8.25" font-weight="400" font-style="normal" 
>
</g>

<g fill="none" stroke="#000000" stroke-opacity="1" stroke-width="1" stroke-linecap="square" stroke-linejoin="bevel" transform="matrix(1.00282,0,0,1.00282,357.507,786.215)"
font-family="MS Shell Dlg 2" font-size="8.25" font-weight="400" font-style="normal" 
>
</g>

<g fill="none" stroke="#000000" stroke-opacity="1" stroke-width="1" stroke-linecap="square" stroke-linejoin="bevel" transform="matrix(1.00282,0,0,1.00282,357.507,786.215)"
font-family="MS Shell Dlg 2" font-size="8.25" font-weight="400" font-style="normal" 
>
</g>

<g fill="none" stroke="#000000" stroke-opacity="1" stroke-width="1" stroke-linecap="square" stroke-linejoin="bevel" transform="matrix(1.00282,0,0,1.00282,357.507,786.215)"
font-family="MS Shell Dlg 2" font-size="8.25" font-weight="400" font-style="normal" 
>
</g>

<g fill="none" stroke="#000000" stroke-opacity="1" stroke-width="1" stroke-linecap="square" stroke-linejoin="bevel" transform="matrix(1.00282,0,0,1.00282,357.507,786.215)"
font-family="MS Shell Dlg 2" font-size="8.25" font-weight="400" font-style="normal" 
>
</g>

<g fill="none" stroke="#000000" stroke-opacity="1" stroke-width="1" stroke-linecap="square" stroke-linejoin="bevel" transform="matrix(1.00282,0,0,1.00282,357.507,786.215)"
font-family="MS Shell Dlg 2" font-size="8.25" font-weight="400" font-style="normal" 
>
</g>

<g fill="none" stroke="#000000" stroke-opacity="1" stroke-width="1" stroke-linecap="square" stroke-linejoin="bevel" transform="matrix(1.00282,0,0,1.00282,357.507,786.215)"
font-family="Sans" font-size="9" font-weight="400" font-style="normal" 
>
<text fill="#000000" fill-opacity="1" stroke="none" xml:space="preserve" x="0" y="0" font-family="Sans" font-size="9" font-weight="400" font-style="normal" 
 > 2000</text>
</g>

<g fill="none" stroke="#000000" stroke-opacity="1" stroke-width="1" stroke-linecap="square" stroke-linejoin="bevel" transform="matrix(1.00282,0,0,1.00282,357.507,786.215)"
font-family="MS Shell Dlg 2" font-size="8.25" font-weight="400" font-style="normal" 
>
</g>

<g fill="none" stroke="#000000" stroke-opacity="1" stroke-width="1" stroke-linecap="square" stroke-linejoin="bevel" transform="matrix(1.00282,0,0,1.00282,0,0)"
font-family="MS Shell Dlg 2" font-size="8.25" font-weight="400" font-style="normal" 
>
</g>

<g fill="none" stroke="#a0a0a4" stroke-opacity="1" stroke-dasharray="0.5,1" stroke-dashoffset="0" stroke-width="0.5" stroke-linecap="round" stroke-linejoin="round" transform="matrix(1.00282,0,0,1.00282,0,0)"
font-family="MS Shell Dlg 2" font-size="8.25" font-weight="400" font-style="normal" 
>
<polyline fill="none" vector-effect="none" points="585.5,765.5 585.5,42.5 " />
</g>

<g fill="none" stroke="#000000" stroke-opacity="1" stroke-width="1" stroke-linecap="round" stroke-linejoin="round" transform="matrix(1.00282,0,0,1.00282,0,0)"
font-family="MS Shell Dlg 2" font-size="8.25" font-weight="400" font-style="normal" 
>
<polyline fill="none" vector-effect="none" points="585.5,765.5 585.5,759.5 " />
<polyline fill="none" vector-effect="none" points="585.5,42.5 585.5,47.5 " />
</g>

<g fill="none" stroke="#000000" stroke-opacity="1" stroke-width="1" stroke-linecap="square" stroke-linejoin="bevel" transform="matrix(1.00282,0,0,1.00282,0,0)"
font-family="MS Shell Dlg 2" font-size="8.25" font-weight="400" font-style="normal" 
>
</g>

<g fill="none" stroke="#000000" stroke-opacity="1" stroke-width="1" stroke-linecap="square" stroke-linejoin="bevel" transform="matrix(1.00282,0,0,1.00282,572.112,786.215)"
font-family="MS Shell Dlg 2" font-size="8.25" font-weight="400" font-style="normal" 
>
</g>

<g fill="none" stroke="#000000" stroke-opacity="1" stroke-width="1" stroke-linecap="square" stroke-linejoin="bevel" transform="matrix(1.00282,0,0,1.00282,572.112,786.215)"
font-family="MS Shell Dlg 2" font-size="8.25" font-weight="400" font-style="normal" 
>
</g>

<g fill="none" stroke="#000000" stroke-opacity="1" stroke-width="1" stroke-linecap="square" stroke-linejoin="bevel" transform="matrix(1.00282,0,0,1.00282,572.112,786.215)"
font-family="MS Shell Dlg 2" font-size="8.25" font-weight="400" font-style="normal" 
>
</g>

<g fill="none" stroke="#000000" stroke-opacity="1" stroke-width="1" stroke-linecap="square" stroke-linejoin="bevel" transform="matrix(1.00282,0,0,1.00282,572.112,786.215)"
font-family="MS Shell Dlg 2" font-size="8.25" font-weight="400" font-style="normal" 
>
</g>

<g fill="none" stroke="#000000" stroke-opacity="1" stroke-width="1" stroke-linecap="square" stroke-linejoin="bevel" transform="matrix(1.00282,0,0,1.00282,572.112,786.215)"
font-family="MS Shell Dlg 2" font-size="8.25" font-weight="400" font-style="normal" 
>
</g>

<g fill="none" stroke="#000000" stroke-opacity="1" stroke-width="1" stroke-linecap="square" stroke-linejoin="bevel" transform="matrix(1.00282,0,0,1.00282,572.112,786.215)"
font-family="Sans" font-size="9" font-weight="400" font-style="normal" 
>
<text fill="#000000" fill-opacity="1" stroke="none" xml:space="preserve" x="0" y="0" font-family="Sans" font-size="9" font-weight="400" font-style="normal" 
 > 4000</text>
</g>

<g fill="none" stroke="#000000" stroke-opacity="1" stroke-width="1" stroke-linecap="square" stroke-linejoin="bevel" transform="matrix(1.00282,0,0,1.00282,572.112,786.215)"
font-family="MS Shell Dlg 2" font-size="8.25" font-weight="400" font-style="normal" 
>
</g>

<g fill="none" stroke="#000000" stroke-opacity="1" stroke-width="1" stroke-linecap="square" stroke-linejoin="bevel" transform="matrix(1.00282,0,0,1.00282,0,0)"
font-family="MS Shell Dlg 2" font-size="8.25" font-weight="400" font-style="normal" 
>
</g>

<g fill="none" stroke="#a0a0a4" stroke-opacity="1" stroke-dasharray="0.5,1" stroke-dashoffset="0" stroke-width="0.5" stroke-linecap="round" stroke-linejoin="round" transform="matrix(1.00282,0,0,1.00282,0,0)"
font-family="MS Shell Dlg 2" font-size="8.25" font-weight="400" font-style="normal" 
>
<polyline fill="none" vector-effect="none" points="799.5,765.5 799.5,42.5 " />
</g>

<g fill="none" stroke="#000000" stroke-opacity="1" stroke-width="1" stroke-linecap="round" stroke-linejoin="round" transform="matrix(1.00282,0,0,1.00282,0,0)"
font-family="MS Shell Dlg 2" font-size="8.25" font-weight="400" font-style="normal" 
>
<polyline fill="none" vector-effect="none" points="799.5,765.5 799.5,759.5 " />
<polyline fill="none" vector-effect="none" points="799.5,42.5 799.5,47.5 " />
</g>

<g fill="none" stroke="#000000" stroke-opacity="1" stroke-width="1" stroke-linecap="square" stroke-linejoin="bevel" transform="matrix(1.00282,0,0,1.00282,0,0)"
font-family="MS Shell Dlg 2" font-size="8.25" font-weight="400" font-style="normal" 
>
</g>

<g fill="none" stroke="#000000" stroke-opacity="1" stroke-width="1" stroke-linecap="square" stroke-linejoin="bevel" transform="matrix(1.00282,0,0,1.00282,785.713,786.215)"
font-family="MS Shell Dlg 2" font-size="8.25" font-weight="400" font-style="normal" 
>
</g>

<g fill="none" stroke="#000000" stroke-opacity="1" stroke-width="1" stroke-linecap="square" stroke-linejoin="bevel" transform="matrix(1.00282,0,0,1.00282,785.713,786.215)"
font-family="MS Shell Dlg 2" font-size="8.25" font-weight="400" font-style="normal" 
>
</g>

<g fill="none" stroke="#000000" stroke-opacity="1" stroke-width="1" stroke-linecap="square" stroke-linejoin="bevel" transform="matrix(1.00282,0,0,1.00282,785.713,786.215)"
font-family="MS Shell Dlg 2" font-size="8.25" font-weight="400" font-style="normal" 
>
</g>

<g fill="none" stroke="#000000" stroke-opacity="1" stroke-width="1" stroke-linecap="square" stroke-linejoin="bevel" transform="matrix(1.00282,0,0,1.00282,785.713,786.215)"
font-family="MS Shell Dlg 2" font-size="8.25" font-weight="400" font-style="normal" 
>
</g>

<g fill="none" stroke="#000000" stroke-opacity="1" stroke-width="1" stroke-linecap="square" stroke-linejoin="bevel" transform="matrix(1.00282,0,0,1.00282,785.713,786.215)"
font-family="MS Shell Dlg 2" font-size="8.25" font-weight="400" font-style="normal" 
>
</g>

<g fill="none" stroke="#000000" stroke-opacity="1" stroke-width="1" stroke-linecap="square" stroke-linejoin="bevel" transform="matrix(1.00282,0,0,1.00282,785.713,786.215)"
font-family="Sans" font-size="9" font-weight="400" font-style="normal" 
>
<text fill="#000000" fill-opacity="1" stroke="none" xml:space="preserve" x="0" y="0" font-family="Sans" font-size="9" font-weight="400" font-style="normal" 
 > 6000</text>
</g>

<g fill="none" stroke="#000000" stroke-opacity="1" stroke-width="1" stroke-linecap="square" stroke-linejoin="bevel" transform="matrix(1.00282,0,0,1.00282,785.713,786.215)"
font-family="MS Shell Dlg 2" font-size="8.25" font-weight="400" font-style="normal" 
>
</g>

<g fill="none" stroke="#000000" stroke-opacity="1" stroke-width="1" stroke-linecap="square" stroke-linejoin="bevel" transform="matrix(1.00282,0,0,1.00282,0,0)"
font-family="MS Shell Dlg 2" font-size="8.25" font-weight="400" font-style="normal" 
>
</g>

<g fill="none" stroke="#a0a0a4" stroke-opacity="1" stroke-dasharray="0.5,1" stroke-dashoffset="0" stroke-width="0.5" stroke-linecap="round" stroke-linejoin="round" transform="matrix(1.00282,0,0,1.00282,0,0)"
font-family="MS Shell Dlg 2" font-size="8.25" font-weight="400" font-style="normal" 
>
<polyline fill="none" vector-effect="none" points="1013.5,765.5 1013.5,42.5 " />
</g>

<g fill="none" stroke="#000000" stroke-opacity="1" stroke-width="1" stroke-linecap="round" stroke-linejoin="round" transform="matrix(1.00282,0,0,1.00282,0,0)"
font-family="MS Shell Dlg 2" font-size="8.25" font-weight="400" font-style="normal" 
>
<polyline fill="none" vector-effect="none" points="1013.5,765.5 1013.5,759.5 " />
<polyline fill="none" vector-effect="none" points="1013.5,42.5 1013.5,47.5 " />
</g>

<g fill="none" stroke="#000000" stroke-opacity="1" stroke-width="1" stroke-linecap="square" stroke-linejoin="bevel" transform="matrix(1.00282,0,0,1.00282,0,0)"
font-family="MS Shell Dlg 2" font-size="8.25" font-weight="400" font-style="normal" 
>
</g>

<g fill="none" stroke="#000000" stroke-opacity="1" stroke-width="1" stroke-linecap="square" stroke-linejoin="bevel" transform="matrix(1.00282,0,0,1.00282,1000.32,786.215)"
font-family="MS Shell Dlg 2" font-size="8.25" font-weight="400" font-style="normal" 
>
</g>

<g fill="none" stroke="#000000" stroke-opacity="1" stroke-width="1" stroke-linecap="square" stroke-linejoin="bevel" transform="matrix(1.00282,0,0,1.00282,1000.32,786.215)"
font-family="MS Shell Dlg 2" font-size="8.25" font-weight="400" font-style="normal" 
>
</g>

<g fill="none" stroke="#000000" stroke-opacity="1" stroke-width="1" stroke-linecap="square" stroke-linejoin="bevel" transform="matrix(1.00282,0,0,1.00282,1000.32,786.215)"
font-family="MS Shell Dlg 2" font-size="8.25" font-weight="400" font-style="normal" 
>
</g>

<g fill="none" stroke="#000000" stroke-opacity="1" stroke-width="1" stroke-linecap="square" stroke-linejoin="bevel" transform="matrix(1.00282,0,0,1.00282,1000.32,786.215)"
font-family="MS Shell Dlg 2" font-size="8.25" font-weight="400" font-style="normal" 
>
</g>

<g fill="none" stroke="#000000" stroke-opacity="1" stroke-width="1" stroke-linecap="square" stroke-linejoin="bevel" transform="matrix(1.00282,0,0,1.00282,1000.32,786.215)"
font-family="MS Shell Dlg 2" font-size="8.25" font-weight="400" font-style="normal" 
>
</g>

<g fill="none" stroke="#000000" stroke-opacity="1" stroke-width="1" stroke-linecap="square" stroke-linejoin="bevel" transform="matrix(1.00282,0,0,1.00282,1000.32,786.215)"
font-family="Sans" font-size="9" font-weight="400" font-style="normal" 
>
<text fill="#000000" fill-opacity="1" stroke="none" xml:space="preserve" x="0" y="0" font-family="Sans" font-size="9" font-weight="400" font-style="normal" 
 > 8000</text>
</g>

<g fill="none" stroke="#000000" stroke-opacity="1" stroke-width="1" stroke-linecap="square" stroke-linejoin="bevel" transform="matrix(1.00282,0,0,1.00282,1000.32,786.215)"
font-family="MS Shell Dlg 2" font-size="8.25" font-weight="400" font-style="normal" 
>
</g>

<g fill="none" stroke="#000000" stroke-opacity="1" stroke-width="1" stroke-linecap="square" stroke-linejoin="bevel" transform="matrix(1.00282,0,0,1.00282,0,0)"
font-family="MS Shell Dlg 2" font-size="8.25" font-weight="400" font-style="normal" 
>
</g>

<g fill="none" stroke="#a0a0a4" stroke-opacity="1" stroke-dasharray="0.5,1" stroke-dashoffset="0" stroke-width="0.5" stroke-linecap="round" stroke-linejoin="round" transform="matrix(1.00282,0,0,1.00282,0,0)"
font-family="MS Shell Dlg 2" font-size="8.25" font-weight="400" font-style="normal" 
>
<polyline fill="none" vector-effect="none" points="1226.5,765.5 1226.5,42.5 " />
</g>

<g fill="none" stroke="#000000" stroke-opacity="1" stroke-width="1" stroke-linecap="round" stroke-linejoin="round" transform="matrix(1.00282,0,0,1.00282,0,0)"
font-family="MS Shell Dlg 2" font-size="8.25" font-weight="400" font-style="normal" 
>
<polyline fill="none" vector-effect="none" points="1226.5,765.5 1226.5,759.5 " />
<polyline fill="none" vector-effect="none" points="1226.5,42.5 1226.5,47.5 " />
</g>

<g fill="none" stroke="#000000" stroke-opacity="1" stroke-width="1" stroke-linecap="square" stroke-linejoin="bevel" transform="matrix(1.00282,0,0,1.00282,0,0)"
font-family="MS Shell Dlg 2" font-size="8.25" font-weight="400" font-style="normal" 
>
</g>

<g fill="none" stroke="#000000" stroke-opacity="1" stroke-width="1" stroke-linecap="square" stroke-linejoin="bevel" transform="matrix(1.00282,0,0,1.00282,1211.41,786.215)"
font-family="MS Shell Dlg 2" font-size="8.25" font-weight="400" font-style="normal" 
>
</g>

<g fill="none" stroke="#000000" stroke-opacity="1" stroke-width="1" stroke-linecap="square" stroke-linejoin="bevel" transform="matrix(1.00282,0,0,1.00282,1211.41,786.215)"
font-family="MS Shell Dlg 2" font-size="8.25" font-weight="400" font-style="normal" 
>
</g>

<g fill="none" stroke="#000000" stroke-opacity="1" stroke-width="1" stroke-linecap="square" stroke-linejoin="bevel" transform="matrix(1.00282,0,0,1.00282,1211.41,786.215)"
font-family="MS Shell Dlg 2" font-size="8.25" font-weight="400" font-style="normal" 
>
</g>

<g fill="none" stroke="#000000" stroke-opacity="1" stroke-width="1" stroke-linecap="square" stroke-linejoin="bevel" transform="matrix(1.00282,0,0,1.00282,1211.41,786.215)"
font-family="MS Shell Dlg 2" font-size="8.25" font-weight="400" font-style="normal" 
>
</g>

<g fill="none" stroke="#000000" stroke-opacity="1" stroke-width="1" stroke-linecap="square" stroke-linejoin="bevel" transform="matrix(1.00282,0,0,1.00282,1211.41,786.215)"
font-family="MS Shell Dlg 2" font-size="8.25" font-weight="400" font-style="normal" 
>
</g>

<g fill="none" stroke="#000000" stroke-opacity="1" stroke-width="1" stroke-linecap="square" stroke-linejoin="bevel" transform="matrix(1.00282,0,0,1.00282,1211.41,786.215)"
font-family="Sans" font-size="9" font-weight="400" font-style="normal" 
>
<text fill="#000000" fill-opacity="1" stroke="none" xml:space="preserve" x="0" y="0" font-family="Sans" font-size="9" font-weight="400" font-style="normal" 
 > 10000</text>
</g>

<g fill="none" stroke="#000000" stroke-opacity="1" stroke-width="1" stroke-linecap="square" stroke-linejoin="bevel" transform="matrix(1.00282,0,0,1.00282,1211.41,786.215)"
font-family="MS Shell Dlg 2" font-size="8.25" font-weight="400" font-style="normal" 
>
</g>

<g fill="none" stroke="#000000" stroke-opacity="1" stroke-width="1" stroke-linecap="square" stroke-linejoin="bevel" transform="matrix(1.00282,0,0,1.00282,0,0)"
font-family="MS Shell Dlg 2" font-size="8.25" font-weight="400" font-style="normal" 
>
</g>

<g fill="none" stroke="#000000" stroke-opacity="1" stroke-width="1" stroke-linecap="round" stroke-linejoin="round" transform="matrix(1.00282,0,0,1.00282,0,0)"
font-family="MS Shell Dlg 2" font-size="8.25" font-weight="400" font-style="normal" 
>
<polyline fill="none" vector-effect="none" points="59.5,42.5 59.5,765.5 1394.5,765.5 1394.5,42.5 59.5,42.5 " />
</g>

<g fill="none" stroke="#000000" stroke-opacity="1" stroke-width="1" stroke-linecap="square" stroke-linejoin="bevel" transform="matrix(1.00282,0,0,1.00282,0,0)"
font-family="MS Shell Dlg 2" font-size="8.25" font-weight="400" font-style="normal" 
>
</g>

<g fill="none" stroke="#000000" stroke-opacity="1" stroke-width="1" stroke-linecap="square" stroke-linejoin="bevel" transform="matrix(1.00282,0,0,1.00282,1307.68,60.1695)"
font-family="MS Shell Dlg 2" font-size="8.25" font-weight="400" font-style="normal" 
>
</g>

<g fill="none" stroke="#000000" stroke-opacity="1" stroke-width="1" stroke-linecap="square" stroke-linejoin="bevel" transform="matrix(1.00282,0,0,1.00282,1307.68,60.1695)"
font-family="MS Shell Dlg 2" font-size="8.25" font-weight="400" font-style="normal" 
>
</g>

<g fill="none" stroke="#000000" stroke-opacity="1" stroke-width="1" stroke-linecap="square" stroke-linejoin="bevel" transform="matrix(1.00282,0,0,1.00282,1307.68,60.1695)"
font-family="MS Shell Dlg 2" font-size="8.25" font-weight="400" font-style="normal" 
>
</g>

<g fill="none" stroke="#000000" stroke-opacity="1" stroke-width="1" stroke-linecap="square" stroke-linejoin="bevel" transform="matrix(1.00282,0,0,1.00282,1307.68,60.1695)"
font-family="MS Shell Dlg 2" font-size="8.25" font-weight="400" font-style="normal" 
>
</g>

<g fill="none" stroke="#000000" stroke-opacity="1" stroke-width="1" stroke-linecap="square" stroke-linejoin="bevel" transform="matrix(1.00282,0,0,1.00282,1307.68,60.1695)"
font-family="MS Shell Dlg 2" font-size="8.25" font-weight="400" font-style="normal" 
>
</g>

<g fill="none" stroke="#000000" stroke-opacity="1" stroke-width="1" stroke-linecap="square" stroke-linejoin="bevel" transform="matrix(1.00282,0,0,1.00282,1307.68,60.1695)"
font-family="Sans" font-size="9" font-weight="400" font-style="normal" 
>
<text fill="#000000" fill-opacity="1" stroke="none" xml:space="preserve" x="0" y="0" font-family="Sans" font-size="9" font-weight="400" font-style="normal" 
 >Manual</text>
</g>

<g fill="none" stroke="#000000" stroke-opacity="1" stroke-width="1" stroke-linecap="square" stroke-linejoin="bevel" transform="matrix(1.00282,0,0,1.00282,1307.68,60.1695)"
font-family="MS Shell Dlg 2" font-size="8.25" font-weight="400" font-style="normal" 
>
</g>

<g fill="none" stroke="#000000" stroke-opacity="1" stroke-width="1" stroke-linecap="square" stroke-linejoin="bevel" transform="matrix(1.00282,0,0,1.00282,0,0)"
font-family="MS Shell Dlg 2" font-size="8.25" font-weight="400" font-style="normal" 
>
</g>

<g fill="none" stroke="#0000ff" stroke-opacity="1" stroke-width="1" stroke-linecap="round" stroke-linejoin="round" transform="matrix(1.00282,0,0,1.00282,0,0)"
font-family="MS Shell Dlg 2" font-size="8.25" font-weight="400" font-style="normal" 
>
<path vector-effect="none" fill-rule="evenodd" d="M1347.5,54.5 L1380.5,54.5"/>
</g>

<g fill="none" stroke="#000000" stroke-opacity="1" stroke-width="1" stroke-linecap="square" stroke-linejoin="bevel" transform="matrix(1.00282,0,0,1.00282,0,0)"
font-family="MS Shell Dlg 2" font-size="8.25" font-weight="400" font-style="normal" 
>
</g>

<g fill="none" stroke="#000000" stroke-opacity="1" stroke-width="1" stroke-linecap="square" stroke-linejoin="bevel" transform="matrix(1.00282,0,0,1.00282,0,0)"
font-family="MS Shell Dlg 2" font-size="8.25" font-weight="400" font-style="normal" 
>
</g>

<g fill="none" stroke="#000000" stroke-opacity="1" stroke-width="1" stroke-linecap="square" stroke-linejoin="bevel" transform="matrix(1.00282,0,0,1.00282,0,0)"
font-family="MS Shell Dlg 2" font-size="8.25" font-weight="400" font-style="normal" 
>
</g>

<g fill="none" stroke="#000000" stroke-opacity="1" stroke-width="1" stroke-linecap="square" stroke-linejoin="bevel" transform="matrix(1.00282,0,0,1.00282,0,0)"
font-family="MS Shell Dlg 2" font-size="8.25" font-weight="400" font-style="normal" 
>
</g>

<g fill="none" stroke="#0000ff" stroke-opacity="1" stroke-width="1" stroke-linecap="round" stroke-linejoin="round" transform="matrix(1.00282,0,0,1.00282,0,0)"
font-family="MS Shell Dlg 2" font-size="8.25" font-weight="400" font-style="normal" 
>
<polyline fill="none" vector-effect="none" points="158.4,678.9 158.4,678.9 159.5,681.8 160.5,687.6 161.6,687.6 162.7,687.6 163.7,684.7 164.8,690.5 165.9,687.6 166.9,687.6 168,690.5 169.1,687.6 170.2,687.6 171.2,690.5 172.3,690.5 173.4,687.6 174.4,690.5 175.5,690.5 176.6,690.5 177.6,687.6 178.7,687.6 179.8,687.6 180.8,690.5 181.9,687.6 183,690.5 184,687.6 185.1,687.6 186.2,687.6 187.2,687.6 188.3,687.6 189.4,687.6 190.4,690.5 191.5,687.6 192.6,690.5 193.7,690.5 194.7,690.5 195.8,687.6 196.9,687.6 197.9,690.5 199,690.5 200.1,690.5 201.1,690.5 202.2,690.5 203.3,690.5 204.3,690.5 205.4,690.5 206.5,690.5 207.5,690.5 208.6,690.5 209.7,690.5 210.7,690.5 211.8,690.5 212.9,690.5 214,687.6 215,687.6 216.1,687.6 217.2,687.6 218.2,690.5 219.3,690.5 220.4,690.5 221.4,690.5 222.5,690.5 223.6,690.5 224.6,687.6 225.7,690.5 226.8,690.5 227.8,690.5 228.9,690.5 230,690.5 231,690.5 232.1,690.5 233.2,687.6 234.3,690.5 235.3,687.6 236.4,687.6 237.5,687.6 238.5,687.6 239.6,690.5 240.7,690.5 241.7,690.5 242.8,690.5 243.9,690.5 244.9,690.5 246,690.5 247.1,690.5 248.1,690.5 249.2,690.5 250.3,690.5 251.3,687.6 252.4,687.6 253.5,690.5 254.5,690.5 255.6,687.6 256.7,690.5 257.8,690.5 258.8,690.5 259.9,687.6 261,690.5 262,690.5 263.1,687.6 264.2,690.5 265.2,690.5 266.3,690.5 267.4,690.5 268.4,690.5 269.5,687.6 270.6,687.6 271.6,690.5 272.7,687.6 273.8,687.6 274.8,687.6 275.9,690.5 277,690.5 278.1,690.5 279.1,690.5 280.2,687.6 281.3,690.5 282.3,690.5 283.4,690.5 284.5,690.5 285.5,690.5 286.6,690.5 287.7,687.6 288.7,687.6 289.8,690.5 290.9,687.6 291.9,690.5 293,690.5 294.1,687.6 295.1,687.6 296.2,687.6 297.3,690.5 298.3,687.6 299.4,687.6 300.5,690.5 301.6,687.6 302.6,690.5 303.7,687.6 304.8,687.6 305.8,690.5 306.9,687.6 308,687.6 309,687.6 310.1,690.5 311.2,687.6 312.2,687.6 313.3,687.6 314.4,687.6 315.4,687.6 316.5,687.6 317.6,687.6 318.6,690.5 319.7,690.5 320.8,687.6 321.9,687.6 322.9,687.6 324,690.5 325.1,690.5 326.1,690.5 327.2,687.6 328.3,687.6 329.3,687.6 330.4,690.5 331.5,687.6 332.5,690.5 333.6,690.5 334.7,687.6 335.7,690.5 336.8,687.6 337.9,690.5 338.9,687.6 340,687.6 341.1,690.5 342.2,687.6 343.2,687.6 344.3,690.5 345.4,690.5 346.4,690.5 347.5,687.6 348.6,690.5 349.6,687.6 350.7,687.6 351.8,687.6 352.8,690.5 353.9,687.6 355,687.6 356,687.6 357.1,687.6 358.2,687.6 359.2,687.6 360.3,690.5 361.4,687.6 362.4,690.5 363.5,687.6 364.6,687.6 365.7,687.6 366.7,687.6 367.8,687.6 368.9,687.6 369.9,687.6 371,687.6 372.1,687.6 373.1,687.6 374.2,687.6 375.3,690.5 376.3,690.5 377.4,687.6 378.5,687.6 379.5,690.5 380.6,690.5 381.7,687.6 382.7,687.6 383.8,687.6 384.9,690.5 386,687.6 387,687.6 388.1,690.5 389.2,687.6 390.2,687.6 391.3,687.6 392.4,687.6 393.4,690.5 394.5,690.5 395.6,687.6 396.6,690.5 397.7,687.6 398.8,687.6 399.8,687.6 400.9,690.5 402,687.6 403,687.6 404.1,687.6 405.2,687.6 406.3,687.6 407.3,687.6 408.4,687.6 409.5,690.5 410.5,687.6 411.6,687.6 412.7,690.5 413.7,690.5 414.8,690.5 415.9,690.5 416.9,687.6 418,687.6 419.1,690.5 420.1,687.6 421.2,687.6 422.3,687.6 423.3,687.6 424.4,687.6 425.5,687.6 426.5,690.5 427.6,690.5 428.7,687.6 429.8,687.6 430.8,687.6 431.9,687.6 433,684.7 434,684.7 435.1,684.7 436.2,684.7 437.2,684.7 438.3,684.7 439.4,684.7 440.4,684.7 441.5,687.6 442.6,687.6 443.6,684.7 444.7,687.6 445.8,687.6 446.8,681.8 447.9,687.6 449,687.6 450.1,687.6 451.1,687.6 452.2,687.6 453.3,687.6 454.3,690.5 455.4,687.6 456.5,687.6 457.5,690.5 458.6,687.6 459.7,687.6 460.7,687.6 461.8,687.6 462.9,687.6 463.9,684.7 465,687.6 466.1,687.6 467.1,690.5 468.2,687.6 469.3,687.6 470.3,687.6 471.4,687.6 472.5,687.6 473.6,687.6 474.6,687.6 475.7,687.6 476.8,687.6 477.8,687.6 478.9,687.6 480,687.6 481,687.6 482.1,687.6 483.2,684.7 484.2,684.7 485.3,687.6 486.4,687.6 487.4,684.7 488.5,687.6 489.6,687.6 490.6,687.6 491.7,684.7 492.8,687.6 493.9,687.6 494.9,687.6 496,687.6 497.1,684.7 498.1,687.6 499.2,684.7 500.3,687.6 501.3,684.7 502.4,687.6 503.5,687.6 504.5,687.6 505.6,684.7 506.7,684.7 507.7,684.7 508.8,687.6 509.9,687.6 510.9,684.7 512,687.6 513.1,684.7 514.2,687.6 515.2,687.6 516.3,687.6 517.4,687.6 518.4,687.6 519.5,684.7 520.6,687.6 521.6,687.6 522.7,687.6 523.8,687.6 524.8,687.6 525.9,684.7 527,684.7 528,687.6 529.1,687.6 530.2,687.6 531.2,684.7 532.3,684.7 533.4,687.6 534.4,681.8 535.5,681.8 536.6,687.6 537.7,687.6 538.7,687.6 539.8,687.6 540.9,687.6 541.9,687.6 543,687.6 544.1,687.6 545.1,687.6 546.2,687.6 547.3,687.6 548.3,684.7 549.4,687.6 550.5,687.6 551.5,684.7 552.6,687.6 553.7,687.6 554.7,687.6 555.8,684.7 556.9,684.7 558,687.6 559,687.6 560.1,684.7 561.2,687.6 562.2,687.6 563.3,684.7 564.4,687.6 565.4,687.6 566.5,684.7 567.6,684.7 568.6,684.7 569.7,687.6 570.8,681.8 571.8,684.7 572.9,687.6 574,687.6 575,687.6 576.1,687.6 577.2,687.6 578.2,687.6 579.3,684.7 580.4,684.7 581.5,684.7 582.5,684.7 583.6,687.6 584.7,687.6 585.7,684.7 586.8,687.6 587.9,684.7 588.9,684.7 590,684.7 591.1,684.7 592.1,684.7 593.2,687.6 594.3,687.6 595.3,687.6 596.4,684.7 597.5,684.7 598.5,687.6 599.6,687.6 600.7,687.6 601.8,687.6 602.8,684.7 603.9,687.6 605,684.7 606,684.7 607.1,684.7 608.2,687.6 609.2,687.6 610.3,687.6 611.4,687.6 612.4,676 613.5,687.6 614.6,687.6 615.6,684.7 616.7,684.7 617.8,687.6 618.8,687.6 619.9,687.6 621,684.7 622.1,684.7 623.1,684.7 624.2,687.6 625.3,687.6 626.3,687.6 627.4,687.6 628.5,687.6 629.5,684.7 630.6,684.7 631.7,687.6 632.7,681.8 633.8,681.8 634.9,687.6 635.9,687.6 637,687.6 638.1,687.6 639.1,684.7 640.2,687.6 641.3,684.7 642.3,684.7 643.4,687.6 644.5,684.7 645.6,687.6 646.6,687.6 647.7,687.6 648.8,684.7 649.8,687.6 650.9,684.7 652,684.7 653,687.6 654.1,687.6 655.2,687.6 656.2,684.7 657.3,687.6 658.4,687.6 659.4,684.7 660.5,687.6 661.6,684.7 662.6,687.6 663.7,687.6 664.8,684.7 665.9,684.7 666.9,684.7 668,687.6 669.1,687.6 670.1,684.7 671.2,684.7 672.3,684.7 673.3,684.7 674.4,684.7 675.5,687.6 676.5,684.7 677.6,684.7 678.7,687.6 679.7,684.7 680.8,687.6 681.9,684.7 682.9,684.7 684,684.7 685.1,684.7 686.2,687.6 687.2,687.6 688.3,684.7 689.4,684.7 690.4,687.6 691.5,687.6 692.6,687.6 693.6,681.8 694.7,681.8 695.8,684.7 696.8,684.7 697.9,687.6 699,687.6 700,684.7 701.1,684.7 702.2,684.7 703.2,687.6 704.3,684.7 705.4,684.7 706.4,684.7 707.5,684.7 708.6,684.7 709.7,684.7 710.7,684.7 711.8,684.7 712.9,684.7 713.9,684.7 715,684.7 716.1,684.7 717.1,687.6 718.2,684.7 719.3,687.6 720.3,684.7 721.4,687.6 722.5,684.7 723.5,687.6 724.6,684.7 725.7,684.7 726.7,684.7 727.8,687.6 728.9,687.6 730,687.6 731,684.7 732.1,684.7 733.2,681.8 734.2,684.7 735.3,684.7 736.4,684.7 737.4,684.7 738.5,684.7 739.6,684.7 740.6,687.6 741.7,684.7 742.8,684.7 743.8,684.7 744.9,684.7 746,684.7 747,684.7 748.1,684.7 749.2,684.7 750.2,684.7 751.3,684.7 752.4,684.7 753.5,684.7 754.5,684.7 755.6,678.9 756.7,678.9 757.7,684.7 758.8,684.7 759.9,684.7 760.9,684.7 762,684.7 763.1,681.8 764.1,684.7 765.2,684.7 766.3,681.8 767.3,684.7 768.4,684.7 769.5,684.7 770.5,684.7 771.6,684.7 772.7,684.7 773.8,684.7 774.8,684.7 775.9,684.7 777,687.6 778,687.6 779.1,684.7 780.2,681.8 781.2,684.7 782.3,681.8 783.4,684.7 784.4,684.7 785.5,684.7 786.6,681.8 787.6,684.7 788.7,684.7 789.8,684.7 790.8,684.7 791.9,684.7 793,684.7 794.1,684.7 795.1,684.7 796.2,684.7 797.3,684.7 798.3,684.7 799.4,684.7 800.5,684.7 801.5,684.7 802.6,684.7 803.7,684.7 804.7,684.7 805.8,684.7 806.9,681.8 807.9,684.7 809,684.7 810.1,684.7 811.1,681.8 812.2,684.7 813.3,684.7 814.3,684.7 815.4,684.7 816.5,684.7 817.6,684.7 818.6,684.7 819.7,684.7 820.8,684.7 821.8,684.7 822.9,684.7 824,684.7 825,684.7 826.1,684.7 827.2,681.8 828.2,684.7 829.3,684.7 830.4,684.7 831.4,684.7 832.5,681.8 833.6,684.7 834.6,684.7 835.7,678.9 836.8,681.8 837.9,684.7 838.9,684.7 840,684.7 841.1,684.7 842.1,684.7 843.2,684.7 844.3,684.7 845.3,681.8 846.4,681.8 847.5,684.7 848.5,681.8 849.6,684.7 850.7,684.7 851.7,681.8 852.8,681.8 853.9,684.7 854.9,684.7 856,684.7 857.1,684.7 858.1,681.8 859.2,684.7 860.3,684.7 861.4,684.7 862.4,684.7 863.5,684.7 864.6,681.8 865.6,684.7 866.7,684.7 867.8,681.8 868.8,684.7 869.9,684.7 871,681.8 872,681.8 873.1,684.7 874.2,684.7 875.2,684.7 876.3,684.7 877.4,684.7 878.4,684.7 879.5,681.8 880.6,681.8 881.7,684.7 882.7,684.7 883.8,676 884.9,684.7 885.9,681.8 887,684.7 888.1,684.7 889.1,684.7 890.2,681.8 891.3,681.8 892.3,681.8 893.4,684.7 894.5,684.7 895.5,681.8 896.6,681.8 897.7,684.7 898.7,681.8 899.8,681.8 900.9,684.7 902,681.8 903,684.7 904.1,684.7 905.2,681.8 906.2,684.7 907.3,681.8 908.4,684.7 909.4,684.7 910.5,684.7 911.6,681.8 912.6,684.7 913.7,684.7 914.8,681.8 915.8,681.8 916.9,681.8 918,681.8 919,681.8 920.1,684.7 921.2,684.7 922.2,684.7 923.3,681.8 924.4,684.7 925.5,684.7 926.5,681.8 927.6,684.7 928.7,681.8 929.7,684.7 930.8,684.7 931.9,684.7 932.9,681.8 934,684.7 935.1,681.8 936.1,681.8 937.2,684.7 938.3,681.8 939.3,684.7 940.4,681.8 941.5,681.8 942.5,681.8 943.6,681.8 944.7,681.8 945.8,681.8 946.8,684.7 947.9,681.8 949,681.8 950,681.8 951.1,681.8 952.2,681.8 953.2,681.8 954.3,684.7 955.4,684.7 956.4,681.8 957.5,684.7 958.6,681.8 959.6,681.8 960.7,681.8 961.8,684.7 962.8,681.8 963.9,681.8 965,681.8 966,684.7 967.1,681.8 968.2,681.8 969.3,681.8 970.3,681.8 971.4,681.8 972.5,684.7 973.5,681.8 974.6,681.8 975.7,681.8 976.7,681.8 977.8,684.7 978.9,681.8 979.9,684.7 981,681.8 982.1,681.8 983.1,681.8 984.2,684.7 985.3,681.8 986.3,684.7 987.4,681.8 988.5,684.7 989.6,684.7 990.6,681.8 991.7,681.8 992.8,681.8 993.8,676 994.9,681.8 996,681.8 997,681.8 998.1,681.8 999.2,681.8 1000.2,681.8 1001.3,681.8 1002.4,673.1 1003.4,681.8 1004.5,681.8 1005.6,681.8 1006.6,681.8 1007.7,681.8 1008.8,681.8 1009.9,681.8 1010.9,681.8 1012,681.8 1013.1,681.8 1014.1,684.7 1015.2,681.8 1016.3,681.8 1017.3,681.8 1018.4,681.8 1019.5,681.8 1020.5,681.8 1021.6,681.8 1022.7,684.7 1023.7,681.8 1024.8,681.8 1025.9,681.8 1026.9,681.8 1028,681.8 1029.1,681.8 1030.1,681.8 1031.2,681.8 1032.3,681.8 1033.4,681.8 1034.4,684.7 1035.5,681.8 1036.6,681.8 1037.6,681.8 1038.7,681.8 1039.8,681.8 1040.8,681.8 1041.9,681.8 1043,681.8 1044,681.8 1045.1,681.8 1046.2,673.1 1047.2,681.8 1048.3,681.8 1049.4,684.7 1050.4,681.8 1051.5,681.8 1052.6,681.8 1053.7,681.8 1054.7,681.8 1055.8,681.8 1056.9,681.8 1057.9,681.8 1059,681.8 1060.1,678.9 1061.1,678.9 1062.2,681.8 1063.3,681.8 1064.3,681.8 1065.4,681.8 1066.5,681.8 1067.5,678.9 1068.6,681.8 1069.7,681.8 1070.7,681.8 1071.8,681.8 1072.9,681.8 1074,681.8 1075,681.8 1076.1,681.8 1077.2,681.8 1078.2,681.8 1079.3,678.9 1080.4,684.7 1081.4,681.8 1082.5,681.8 1083.6,678.9 1084.6,678.9 1085.7,678.9 1086.8,681.8 1087.8,678.9 1088.9,681.8 1090,681.8 1091,681.8 1092.1,678.9 1093.2,684.7 1094.2,678.9 1095.3,681.8 1096.4,681.8 1097.5,681.8 1098.5,678.9 1099.6,681.8 1100.7,684.7 1101.7,681.8 1102.8,681.8 1103.9,681.8 1104.9,681.8 1106,678.9 1107.1,678.9 1108.1,676 1109.2,681.8 1110.3,681.8 1111.3,681.8 1112.4,681.8 1113.5,678.9 1114.5,681.8 1115.6,681.8 1116.7,673.1 1117.8,681.8 1118.8,681.8 1119.9,681.8 1121,681.8 1122,678.9 1123.1,681.8 1124.2,681.8 1125.2,681.8 1126.3,681.8 1127.4,684.7 1128.4,681.8 1129.5,681.8 1130.6,681.8 1131.6,681.8 1132.7,681.8 1133.8,681.8 1134.8,678.9 1135.9,681.8 1137,678.9 1138,678.9 1139.1,678.9 1140.2,678.9 1141.3,681.8 1142.3,681.8 1143.4,678.9 1144.5,681.8 1145.5,678.9 1146.6,681.8 1147.7,681.8 1148.7,681.8 1149.8,678.9 1150.9,681.8 1151.9,678.9 1153,676 1154.1,678.9 1155.1,681.8 1156.2,681.8 1157.3,681.8 1158.3,678.9 1159.4,670.2 1160.5,681.8 1161.6,681.8 1162.6,678.9 1163.7,681.8 1164.8,681.8 1165.8,678.9 1166.9,678.9 1168,681.8 1169,681.8 1170.1,681.8 1171.2,678.9 1172.2,681.8 1173.3,681.8 1174.4,678.9 1175.4,681.8 1176.5,678.9 1177.6,681.8 1178.6,681.8 1179.7,678.9 1180.8,681.8 1181.9,678.9 1182.9,678.9 1184,681.8 1185.1,678.9 1186.1,681.8 1187.2,678.9 1188.3,678.9 1189.3,681.8 1190.4,681.8 1191.5,681.8 1192.5,681.8 1193.6,673.1 1194.7,678.9 1195.7,678.9 1196.8,678.9 1197.9,681.8 1198.9,681.8 1200,681.8 1201.1,678.9 1202.1,681.8 1203.2,678.9 1204.3,681.8 1205.4,678.9 1206.4,678.9 1207.5,681.8 1208.6,678.9 1209.6,678.9 1210.7,678.9 1211.8,681.8 1212.8,678.9 1213.9,681.8 1215,678.9 1216,678.9 1217.1,678.9 1218.2,678.9 1219.2,678.9 1220.3,681.8 1221.4,678.9 1222.4,678.9 1223.5,681.8 1224.6,681.8 1225.7,678.9 1226.7,678.9 " />
</g>

<g fill="none" stroke="#000000" stroke-opacity="1" stroke-width="1" stroke-linecap="square" stroke-linejoin="bevel" transform="matrix(1.00282,0,0,1.00282,0,0)"
font-family="MS Shell Dlg 2" font-size="8.25" font-weight="400" font-style="normal" 
>
</g>

<g fill="none" stroke="#000000" stroke-opacity="1" stroke-width="1" stroke-linecap="square" stroke-linejoin="bevel" transform="matrix(1.00282,0,0,1.00282,1277.6,74.209)"
font-family="MS Shell Dlg 2" font-size="8.25" font-weight="400" font-style="normal" 
>
</g>

<g fill="none" stroke="#000000" stroke-opacity="1" stroke-width="1" stroke-linecap="square" stroke-linejoin="bevel" transform="matrix(1.00282,0,0,1.00282,1277.6,74.209)"
font-family="MS Shell Dlg 2" font-size="8.25" font-weight="400" font-style="normal" 
>
</g>

<g fill="none" stroke="#000000" stroke-opacity="1" stroke-width="1" stroke-linecap="square" stroke-linejoin="bevel" transform="matrix(1.00282,0,0,1.00282,1277.6,74.209)"
font-family="MS Shell Dlg 2" font-size="8.25" font-weight="400" font-style="normal" 
>
</g>

<g fill="none" stroke="#000000" stroke-opacity="1" stroke-width="1" stroke-linecap="square" stroke-linejoin="bevel" transform="matrix(1.00282,0,0,1.00282,1277.6,74.209)"
font-family="MS Shell Dlg 2" font-size="8.25" font-weight="400" font-style="normal" 
>
</g>

<g fill="none" stroke="#000000" stroke-opacity="1" stroke-width="1" stroke-linecap="square" stroke-linejoin="bevel" transform="matrix(1.00282,0,0,1.00282,1277.6,74.209)"
font-family="MS Shell Dlg 2" font-size="8.25" font-weight="400" font-style="normal" 
>
</g>

<g fill="none" stroke="#000000" stroke-opacity="1" stroke-width="1" stroke-linecap="square" stroke-linejoin="bevel" transform="matrix(1.00282,0,0,1.00282,1277.6,74.209)"
font-family="Sans" font-size="9" font-weight="400" font-style="normal" 
>
<text fill="#000000" fill-opacity="1" stroke="none" xml:space="preserve" x="0" y="0" font-family="Sans" font-size="9" font-weight="400" font-style="normal" 
 >Combinators</text>
</g>

<g fill="none" stroke="#000000" stroke-opacity="1" stroke-width="1" stroke-linecap="square" stroke-linejoin="bevel" transform="matrix(1.00282,0,0,1.00282,1277.6,74.209)"
font-family="MS Shell Dlg 2" font-size="8.25" font-weight="400" font-style="normal" 
>
</g>

<g fill="none" stroke="#000000" stroke-opacity="1" stroke-width="1" stroke-linecap="square" stroke-linejoin="bevel" transform="matrix(1.00282,0,0,1.00282,0,0)"
font-family="MS Shell Dlg 2" font-size="8.25" font-weight="400" font-style="normal" 
>
</g>

<g fill="none" stroke="#ff0000" stroke-opacity="1" stroke-width="1" stroke-linecap="round" stroke-linejoin="round" transform="matrix(1.00282,0,0,1.00282,0,0)"
font-family="MS Shell Dlg 2" font-size="8.25" font-weight="400" font-style="normal" 
>
<path vector-effect="none" fill-rule="evenodd" d="M1347.5,68.5 L1380.5,68.5"/>
</g>

<g fill="none" stroke="#000000" stroke-opacity="1" stroke-width="1" stroke-linecap="square" stroke-linejoin="bevel" transform="matrix(1.00282,0,0,1.00282,0,0)"
font-family="MS Shell Dlg 2" font-size="8.25" font-weight="400" font-style="normal" 
>
</g>

<g fill="none" stroke="#000000" stroke-opacity="1" stroke-width="1" stroke-linecap="square" stroke-linejoin="bevel" transform="matrix(1.00282,0,0,1.00282,0,0)"
font-family="MS Shell Dlg 2" font-size="8.25" font-weight="400" font-style="normal" 
>
</g>

<g fill="none" stroke="#000000" stroke-opacity="1" stroke-width="1" stroke-linecap="square" stroke-linejoin="bevel" transform="matrix(1.00282,0,0,1.00282,0,0)"
font-family="MS Shell Dlg 2" font-size="8.25" font-weight="400" font-style="normal" 
>
</g>

<g fill="none" stroke="#000000" stroke-opacity="1" stroke-width="1" stroke-linecap="square" stroke-linejoin="bevel" transform="matrix(1.00282,0,0,1.00282,0,0)"
font-family="MS Shell Dlg 2" font-size="8.25" font-weight="400" font-style="normal" 
>
</g>

<g fill="none" stroke="#ff0000" stroke-opacity="1" stroke-width="1" stroke-linecap="round" stroke-linejoin="round" transform="matrix(1.00282,0,0,1.00282,0,0)"
font-family="MS Shell Dlg 2" font-size="8.25" font-weight="400" font-style="normal" 
>
<polyline fill="none" vector-effect="none" points="158.4,618.2 158.4,618.2 159.5,664.4 160.5,673.1 161.6,676 162.7,670.2 163.7,673.1 164.8,670.2 165.9,673.1 166.9,676 168,673.1 169.1,673.1 170.2,670.2 171.2,667.3 172.3,670.2 173.4,676 174.4,673.1 175.5,673.1 176.6,673.1 177.6,670.2 178.7,670.2 179.8,670.2 180.8,670.2 181.9,667.3 183,670.2 184,670.2 185.1,670.2 186.2,670.2 187.2,670.2 188.3,670.2 189.4,667.3 190.4,667.3 191.5,667.3 192.6,667.3 193.7,667.3 194.7,667.3 195.8,670.2 196.9,667.3 197.9,664.4 199,664.4 200.1,667.3 201.1,664.4 202.2,667.3 203.3,658.7 204.3,678.9 205.4,678.9 206.5,678.9 207.5,678.9 208.6,678.9 209.7,681.8 210.7,676 211.8,678.9 212.9,678.9 214,681.8 215,681.8 216.1,681.8 217.2,678.9 218.2,678.9 219.3,676 220.4,678.9 221.4,670.2 222.5,676 223.6,678.9 224.6,678.9 225.7,676 226.8,673.1 227.8,673.1 228.9,676 230,676 231,676 232.1,676 233.2,676 234.3,676 235.3,667.3 236.4,676 237.5,676 238.5,676 239.6,673.1 240.7,673.1 241.7,673.1 242.8,670.2 243.9,673.1 244.9,670.2 246,673.1 247.1,655.8 248.1,647.1 249.2,650 250.3,647.1 251.3,647.1 252.4,661.6 253.5,670.2 254.5,670.2 255.6,673.1 256.7,667.3 257.8,667.3 258.8,670.2 259.9,670.2 261,661.6 262,667.3 263.1,670.2 264.2,667.3 265.2,664.4 266.3,664.4 267.4,667.3 268.4,667.3 269.5,670.2 270.6,664.4 271.6,658.7 272.7,664.4 273.8,664.4 274.8,664.4 275.9,664.4 277,664.4 278.1,664.4 279.1,664.4 280.2,664.4 281.3,661.6 282.3,647.1 283.4,658.7 284.5,661.6 285.5,661.6 286.6,661.6 287.7,661.6 288.7,661.6 289.8,661.6 290.9,661.6 291.9,638.4 293,658.7 294.1,661.6 295.1,661.6 296.2,658.7 297.3,661.6 298.3,661.6 299.4,661.6 300.5,658.7 301.6,652.9 302.6,658.7 303.7,658.7 304.8,658.7 305.8,655.8 306.9,658.7 308,658.7 309,655.8 310.1,615.3 311.2,618.2 312.2,621.1 313.3,618.2 314.4,612.4 315.4,615.3 316.5,615.3 317.6,626.8 318.6,652.9 319.7,652.9 320.8,655.8 321.9,655.8 322.9,644.2 324,650 325.1,650 326.1,650 327.2,652.9 328.3,650 329.3,650 330.4,650 331.5,652.9 332.5,650 333.6,650 334.7,638.4 335.7,650 336.8,652.9 337.9,650 338.9,650 340,650 341.1,650 342.2,650 343.2,650 344.3,644.2 345.4,618.2 346.4,647.1 347.5,647.1 348.6,647.1 349.6,650 350.7,647.1 351.8,647.1 352.8,647.1 353.9,647.1 355,647.1 356,626.8 357.1,647.1 358.2,647.1 359.2,641.3 360.3,644.2 361.4,644.2 362.4,644.2 363.5,647.1 364.6,644.2 365.7,580.6 366.7,586.4 367.8,592.1 368.9,589.2 369.9,592.1 371,624 372.1,644.2 373.1,641.3 374.2,641.3 375.3,638.4 376.3,641.3 377.4,641.3 378.5,635.5 379.5,641.3 380.6,641.3 381.7,641.3 382.7,638.4 383.8,635.5 384.9,635.5 386,638.4 387,638.4 388.1,638.4 389.2,638.4 390.2,629.7 391.3,638.4 392.4,638.4 393.4,635.5 394.5,635.5 395.6,638.4 396.6,635.5 397.7,635.5 398.8,638.4 399.8,635.5 400.9,592.1 402,632.6 403,626.8 404.1,632.6 405.2,632.6 406.3,632.6 407.3,632.6 408.4,635.5 409.5,632.6 410.5,635.5 411.6,600.8 412.7,629.7 413.7,629.7 414.8,629.7 415.9,629.7 416.9,629.7 418,629.7 419.1,629.7 420.1,629.7 421.2,589.2 422.3,624 423.3,626.8 424.4,624 425.5,624 426.5,626.8 427.6,626.8 428.7,626.8 429.8,626.8 430.8,626.8 431.9,543 433,554.5 434,557.4 435.1,551.6 436.2,554.5 437.2,557.4 438.3,560.3 439.4,563.2 440.4,580.6 441.5,624 442.6,626.8 443.6,624 444.7,624 445.8,624 446.8,624 447.9,624 449,624 450.1,624 451.1,624 452.2,621.1 453.3,624 454.3,621.1 455.4,621.1 456.5,624 457.5,618.2 458.6,621.1 459.7,621.1 460.7,583.5 461.8,615.3 462.9,618.2 463.9,618.2 465,615.3 466.1,618.2 467.1,615.3 468.2,615.3 469.3,615.3 470.3,615.3 471.4,615.3 472.5,615.3 473.6,545.9 474.6,609.5 475.7,612.4 476.8,615.3 477.8,618.2 478.9,618.2 480,612.4 481,612.4 482.1,615.3 483.2,592.1 484.2,545.9 485.3,554.5 486.4,531.4 487.4,603.7 488.5,597.9 489.6,571.9 490.6,603.7 491.7,592.1 492.8,592.1 493.9,597.9 494.9,592.1 496,589.2 497.1,597.9 498.1,583.5 499.2,560.3 500.3,600.8 501.3,600.8 502.4,597.9 503.5,595 504.5,600.8 505.6,603.7 506.7,597.9 507.7,597.9 508.8,600.8 509.9,603.7 510.9,540.1 512,600.8 513.1,603.7 514.2,600.8 515.2,603.7 516.3,603.7 517.4,595 518.4,597.9 519.5,600.8 520.6,603.7 521.6,603.7 522.7,557.4 523.8,600.8 524.8,603.7 525.9,603.7 527,600.8 528,603.7 529.1,600.8 530.2,600.8 531.2,600.8 532.3,597.9 533.4,534.3 534.4,511.2 535.5,519.8 536.6,597.9 537.7,595 538.7,595 539.8,597.9 540.9,600.8 541.9,597.9 543,600.8 544.1,597.9 545.1,597.9 546.2,577.7 547.3,600.8 548.3,597.9 549.4,597.9 550.5,597.9 551.5,595 552.6,597.9 553.7,597.9 554.7,597.9 555.8,597.9 556.9,595 558,563.2 559,589.2 560.1,589.2 561.2,589.2 562.2,589.2 563.3,589.2 564.4,589.2 565.4,586.4 566.5,592.1 567.6,592.1 568.6,511.2 569.7,586.4 570.8,589.2 571.8,589.2 572.9,589.2 574,592.1 575,592.1 576.1,589.2 577.2,592.1 578.2,592.1 579.3,595 580.4,551.6 581.5,589.2 582.5,589.2 583.6,589.2 584.7,592.1 585.7,592.1 586.8,583.5 587.9,586.4 588.9,589.2 590,589.2 591.1,528.5 592.1,586.4 593.2,583.5 594.3,583.5 595.3,583.5 596.4,583.5 597.5,583.5 598.5,586.4 599.6,583.5 600.7,583.5 601.8,537.2 602.8,577.7 603.9,577.7 605,583.5 606,586.4 607.1,586.4 608.2,583.5 609.2,583.5 610.3,583.5 611.4,583.5 612.4,583.5 613.5,580.6 614.6,580.6 615.6,580.6 616.7,577.7 617.8,580.6 618.8,580.6 619.9,583.5 621,580.6 622.1,499.6 623.1,571.9 624.2,574.8 625.3,577.7 626.3,577.7 627.4,574.8 628.5,580.6 629.5,577.7 630.6,574.8 631.7,447.5 632.7,464.9 633.8,540.1 634.9,577.7 635.9,577.7 637,569 638.1,574.8 639.1,574.8 640.2,574.8 641.3,577.7 642.3,473.5 643.4,571.9 644.5,574.8 645.6,574.8 646.6,569 647.7,574.8 648.8,577.7 649.8,577.7 650.9,577.7 652,574.8 653,519.8 654.1,571.9 655.2,571.9 656.2,571.9 657.3,571.9 658.4,574.8 659.4,571.9 660.5,569 661.6,563.2 662.6,482.2 663.7,560.3 664.8,569 665.9,571.9 666.9,569 668,569 669.1,569 670.1,571.9 671.2,569 672.3,571.9 673.3,534.3 674.4,569 675.5,569 676.5,569 677.6,569 678.7,569 679.7,569 680.8,566.1 681.9,566.1 682.9,485.1 684,560.3 685.1,557.4 686.2,557.4 687.2,563.2 688.3,566.1 689.4,569 690.4,563.2 691.5,560.3 692.6,415.7 693.6,435.9 694.7,462 695.8,557.4 696.8,560.3 697.9,563.2 699,560.3 700,560.3 701.1,563.2 702.2,563.2 703.2,447.5 704.3,560.3 705.4,560.3 706.4,560.3 707.5,560.3 708.6,557.4 709.7,560.3 710.7,560.3 711.8,560.3 712.9,557.4 713.9,456.2 715,554.5 716.1,554.5 717.1,557.4 718.2,563.2 719.3,557.4 720.3,554.5 721.4,551.6 722.5,557.4 723.5,554.5 724.6,488 725.7,548.8 726.7,554.5 727.8,554.5 728.9,554.5 730,551.6 731,554.5 732.1,551.6 733.2,548.8 734.2,551.6 735.3,548.8 736.4,554.5 737.4,554.5 738.5,551.6 739.6,548.8 740.6,548.8 741.7,554.5 742.8,548.8 743.8,551.6 744.9,438.8 746,540.1 747,545.9 748.1,548.8 749.2,551.6 750.2,545.9 751.3,543 752.4,545.9 753.5,551.6 754.5,462 755.6,409.9 756.7,528.5 757.7,543 758.8,545.9 759.9,548.8 760.9,548.8 762,540.1 763.1,531.4 764.1,537.2 765.2,415.7 766.3,537.2 767.3,537.2 768.4,537.2 769.5,537.2 770.5,537.2 771.6,534.3 772.7,543 773.8,540.1 774.8,545.9 775.9,488 777,540.1 778,540.1 779.1,540.1 780.2,543 781.2,537.2 782.3,534.3 783.4,540.1 784.4,534.3 785.5,459.1 786.6,537.2 787.6,537.2 788.7,534.3 789.8,540.1 790.8,540.1 791.9,537.2 793,531.4 794.1,540.1 795.1,540.1 796.2,490.9 797.3,534.3 798.3,540.1 799.4,534.3 800.5,528.5 801.5,534.3 802.6,537.2 803.7,534.3 804.7,534.3 805.8,418.6 806.9,534.3 807.9,528.5 809,528.5 810.1,534.3 811.1,525.6 812.2,531.4 813.3,531.4 814.3,528.5 815.4,401.2 816.5,528.5 817.6,522.7 818.6,528.5 819.7,528.5 820.8,525.6 821.8,531.4 822.9,534.3 824,528.5 825,418.6 826.1,525.6 827.2,522.7 828.2,525.6 829.3,525.6 830.4,528.5 831.4,528.5 832.5,528.5 833.6,531.4 834.6,346.3 835.7,476.4 836.8,522.7 837.9,522.7 838.9,522.7 840,522.7 841.1,522.7 842.1,525.6 843.2,522.7 844.3,381 845.3,522.7 846.4,522.7 847.5,522.7 848.5,519.8 849.6,519.8 850.7,516.9 851.7,505.4 852.8,522.7 853.9,372.3 854.9,516.9 856,516.9 857.1,522.7 858.1,516.9 859.2,516.9 860.3,519.8 861.4,519.8 862.4,519.8 863.5,375.2 864.6,511.2 865.6,508.3 866.7,514 867.8,514 868.8,514 869.9,516.9 871,519.8 872,511.2 873.1,412.8 874.2,511.2 875.2,511.2 876.3,514 877.4,514 878.4,511.2 879.5,516.9 880.6,519.8 881.7,508.3 882.7,331.8 883.8,473.5 884.9,508.3 885.9,508.3 887,508.3 888.1,511.2 889.1,511.2 890.2,511.2 891.3,514 892.3,392.6 893.4,505.4 894.5,511.2 895.5,505.4 896.6,505.4 897.7,508.3 898.7,514 899.8,511.2 900.9,508.3 902,366.5 903,508.3 904.1,505.4 905.2,508.3 906.2,505.4 907.3,508.3 908.4,508.3 909.4,508.3 910.5,505.4 911.6,378.1 912.6,496.7 913.7,502.5 914.8,499.6 915.8,499.6 916.9,505.4 918,505.4 919,508.3 920.1,499.6 921.2,407 922.2,502.5 923.3,502.5 924.4,499.6 925.5,499.6 926.5,496.7 927.6,496.7 928.7,499.6 929.7,499.6 930.8,456.2 931.9,496.7 932.9,499.6 934,502.5 935.1,496.7 936.1,502.5 937.2,502.5 938.3,499.6 939.3,404.1 940.4,496.7 941.5,490.9 942.5,493.8 943.6,496.7 944.7,496.7 945.8,502.5 946.8,499.6 947.9,496.7 949,407 950,490.9 951.1,499.6 952.2,496.7 953.2,493.8 954.3,496.7 955.4,490.9 956.4,485.1 957.5,369.4 958.6,490.9 959.6,488 960.7,493.8 961.8,493.8 962.8,490.9 963.9,490.9 965,488 966,490.9 967.1,467.8 968.2,488 969.3,488 970.3,488 971.4,488 972.5,488 973.5,490.9 974.6,490.9 975.7,378.1 976.7,485.1 977.8,485.1 978.9,488 979.9,488 981,493.8 982.1,488 983.1,488 984.2,331.8 985.3,479.3 986.3,488 987.4,485.1 988.5,482.2 989.6,488 990.6,485.1 991.7,485.1 992.8,262.4 993.8,412.8 994.9,488 996,476.4 997,482.2 998.1,488 999.2,482.2 1000.2,485.1 1001.3,482.2 1002.4,479.3 1003.4,482.2 1004.5,485.1 1005.6,482.2 1006.6,476.4 1007.7,482.2 1008.8,476.4 1009.9,470.7 1010.9,378.1 1012,479.3 1013.1,479.3 1014.1,476.4 1015.2,473.5 1016.3,473.5 1017.3,476.4 1018.4,479.3 1019.5,302.9 1020.5,476.4 1021.6,476.4 1022.7,476.4 1023.7,476.4 1024.8,473.5 1025.9,479.3 1026.9,476.4 1028,294.2 1029.1,470.7 1030.1,473.5 1031.2,473.5 1032.3,470.7 1033.4,473.5 1034.4,470.7 1035.5,470.7 1036.6,274 1037.6,476.4 1038.7,470.7 1039.8,473.5 1040.8,470.7 1041.9,470.7 1043,470.7 1044,467.8 1045.1,230.6 1046.2,323.1 1047.2,467.8 1048.3,467.8 1049.4,473.5 1050.4,467.8 1051.5,470.7 1052.6,470.7 1053.7,470.7 1054.7,438.8 1055.8,470.7 1056.9,467.8 1057.9,470.7 1059,467.8 1060.1,462 1061.1,467.8 1062.2,462 1063.3,300 1064.3,464.9 1065.4,467.8 1066.5,464.9 1067.5,470.7 1068.6,462 1069.7,464.9 1070.7,462 1071.8,311.6 1072.9,459.1 1074,462 1075,459.1 1076.1,464.9 1077.2,464.9 1078.2,462 1079.3,464.9 1080.4,459.1 1081.4,421.5 1082.5,462 1083.6,462 1084.6,459.1 1085.7,459.1 1086.8,464.9 1087.8,462 1088.9,459.1 1090,346.3 1091,459.1 1092.1,459.1 1093.2,453.3 1094.2,462 1095.3,456.2 1096.4,459.1 1097.5,450.4 1098.5,308.7 1099.6,453.3 1100.7,456.2 1101.7,459.1 1102.8,456.2 1103.9,453.3 1104.9,456.2 1106,447.5 1107.1,253.7 1108.1,412.8 1109.2,453.3 1110.3,450.4 1111.3,456.2 1112.4,456.2 1113.5,456.2 1114.5,453.3 1115.6,195.9 1116.7,438.8 1117.8,453.3 1118.8,447.5 1119.9,450.4 1121,453.3 1122,450.4 1123.1,450.4 1124.2,242.2 1125.2,453.3 1126.3,450.4 1127.4,444.6 1128.4,450.4 1129.5,444.6 1130.6,441.7 1131.6,444.6 1132.7,297.1 1133.8,444.6 1134.8,444.6 1135.9,447.5 1137,447.5 1138,447.5 1139.1,447.5 1140.2,444.6 1141.3,271.1 1142.3,444.6 1143.4,441.7 1144.5,447.5 1145.5,447.5 1146.6,447.5 1147.7,447.5 1148.7,438.8 1149.8,233.5 1150.9,441.7 1151.9,430.2 1153,427.3 1154.1,444.6 1155.1,441.7 1156.2,441.7 1157.3,435.9 1158.3,175.6 1159.4,430.2 1160.5,438.8 1161.6,438.8 1162.6,415.7 1163.7,438.8 1164.8,438.8 1165.8,433.1 1166.9,230.6 1168,438.8 1169,438.8 1170.1,438.8 1171.2,441.7 1172.2,441.7 1173.3,435.9 1174.4,433.1 1175.4,221.9 1176.5,433.1 1177.6,435.9 1178.6,435.9 1179.7,441.7 1180.8,438.8 1181.9,435.9 1182.9,433.1 1184,224.8 1185.1,433.1 1186.1,435.9 1187.2,433.1 1188.3,433.1 1189.3,433.1 1190.4,427.3 1191.5,430.2 1192.5,164.1 1193.6,415.7 1194.7,427.3 1195.7,433.1 1196.8,433.1 1197.9,430.2 1198.9,430.2 1200,433.1 1201.1,219 1202.1,427.3 1203.2,427.3 1204.3,418.6 1205.4,430.2 1206.4,430.2 1207.5,427.3 1208.6,427.3 1209.6,233.5 1210.7,433.1 1211.8,430.2 1212.8,427.3 1213.9,424.4 1215,427.3 1216,421.5 1217.1,427.3 1218.2,224.8 1219.2,424.4 1220.3,421.5 1221.4,424.4 1222.4,424.4 1223.5,424.4 1224.6,421.5 1225.7,424.4 1226.7,114.9 " />
</g>

<g fill="none" stroke="#000000" stroke-opacity="1" stroke-width="1" stroke-linecap="square" stroke-linejoin="bevel" transform="matrix(1.00282,0,0,1.00282,0,0)"
font-family="MS Shell Dlg 2" font-size="8.25" font-weight="400" font-style="normal" 
>
</g>

<g fill="none" stroke="#000000" stroke-opacity="1" stroke-width="1" stroke-linecap="square" stroke-linejoin="bevel" transform="matrix(1.00282,0,0,1.00282,0,0)"
font-family="MS Shell Dlg 2" font-size="8.25" font-weight="400" font-style="normal" 
>
</g>

<g fill="none" stroke="#000000" stroke-opacity="1" stroke-width="1" stroke-linecap="round" stroke-linejoin="round" transform="matrix(1.00282,0,0,1.00282,0,0)"
font-family="MS Shell Dlg 2" font-size="8.25" font-weight="400" font-style="normal" 
>
<polyline fill="none" vector-effect="none" points="59.5,42.5 59.5,765.5 1394.5,765.5 1394.5,42.5 59.5,42.5 " />
</g>

<g fill="none" stroke="#000000" stroke-opacity="1" stroke-width="1" stroke-linecap="square" stroke-linejoin="bevel" transform="matrix(1.00282,0,0,1.00282,0,0)"
font-family="MS Shell Dlg 2" font-size="8.25" font-weight="400" font-style="normal" 
>
</g>

<g fill="none" stroke="#000000" stroke-opacity="1" stroke-width="1" stroke-linecap="square" stroke-linejoin="bevel" transform="matrix(0,-1.00282,1.00282,0,17.048,442.246)"
font-family="MS Shell Dlg 2" font-size="8.25" font-weight="400" font-style="normal" 
>
</g>

<g fill="none" stroke="#000000" stroke-opacity="1" stroke-width="1" stroke-linecap="square" stroke-linejoin="bevel" transform="matrix(0,-1.00282,1.00282,0,17.048,442.246)"
font-family="MS Shell Dlg 2" font-size="8.25" font-weight="400" font-style="normal" 
>
</g>

<g fill="none" stroke="#000000" stroke-opacity="1" stroke-width="1" stroke-linecap="square" stroke-linejoin="bevel" transform="matrix(0,-1.00282,1.00282,0,17.048,442.246)"
font-family="MS Shell Dlg 2" font-size="8.25" font-weight="400" font-style="normal" 
>
</g>

<g fill="none" stroke="#000000" stroke-opacity="1" stroke-width="1" stroke-linecap="square" stroke-linejoin="bevel" transform="matrix(0,-1.00282,1.00282,0,17.048,442.246)"
font-family="MS Shell Dlg 2" font-size="8.25" font-weight="400" font-style="normal" 
>
</g>

<g fill="none" stroke="#000000" stroke-opacity="1" stroke-width="1" stroke-linecap="square" stroke-linejoin="bevel" transform="matrix(0,-1.00282,1.00282,0,17.048,442.246)"
font-family="MS Shell Dlg 2" font-size="8.25" font-weight="400" font-style="normal" 
>
</g>

<g fill="none" stroke="#000000" stroke-opacity="1" stroke-width="1" stroke-linecap="square" stroke-linejoin="bevel" transform="matrix(0,-1.00282,1.00282,0,17.048,442.246)"
font-family="Sans" font-size="9" font-weight="400" font-style="normal" 
>
<text fill="#000000" fill-opacity="1" stroke="none" xml:space="preserve" x="0" y="0" font-family="Sans" font-size="9" font-weight="400" font-style="normal" 
 >Duration [ms]</text>
</g>

<g fill="none" stroke="#000000" stroke-opacity="1" stroke-width="1" stroke-linecap="square" stroke-linejoin="bevel" transform="matrix(0,-1.00282,1.00282,0,17.048,442.246)"
font-family="MS Shell Dlg 2" font-size="8.25" font-weight="400" font-style="normal" 
>
</g>

<g fill="none" stroke="#000000" stroke-opacity="1" stroke-width="1" stroke-linecap="square" stroke-linejoin="bevel" transform="matrix(1.00282,0,0,1.00282,671.893,807.274)"
font-family="MS Shell Dlg 2" font-size="8.25" font-weight="400" font-style="normal" 
>
</g>

<g fill="none" stroke="#000000" stroke-opacity="1" stroke-width="1" stroke-linecap="square" stroke-linejoin="bevel" transform="matrix(1.00282,0,0,1.00282,671.893,807.274)"
font-family="MS Shell Dlg 2" font-size="8.25" font-weight="400" font-style="normal" 
>
</g>

<g fill="none" stroke="#000000" stroke-opacity="1" stroke-width="1" stroke-linecap="square" stroke-linejoin="bevel" transform="matrix(1.00282,0,0,1.00282,671.893,807.274)"
font-family="MS Shell Dlg 2" font-size="8.25" font-weight="400" font-style="normal" 
>
</g>

<g fill="none" stroke="#000000" stroke-opacity="1" stroke-width="1" stroke-linecap="square" stroke-linejoin="bevel" transform="matrix(1.00282,0,0,1.00282,671.893,807.274)"
font-family="MS Shell Dlg 2" font-size="8.25" font-weight="400" font-style="normal" 
>
</g>

<g fill="none" stroke="#000000" stroke-opacity="1" stroke-width="1" stroke-linecap="square" stroke-linejoin="bevel" transform="matrix(1.00282,0,0,1.00282,671.893,807.274)"
font-family="MS Shell Dlg 2" font-size="8.25" font-weight="400" font-style="normal" 
>
</g>

<g fill="none" stroke="#000000" stroke-opacity="1" stroke-width="1" stroke-linecap="square" stroke-linejoin="bevel" transform="matrix(1.00282,0,0,1.00282,671.893,807.274)"
font-family="Sans" font-size="9" font-weight="400" font-style="normal" 
>
<text fill="#000000" fill-opacity="1" stroke="none" xml:space="preserve" x="0" y="0" font-family="Sans" font-size="9" font-weight="400" font-style="normal" 
 >Text length multiplier</text>
</g>

<g fill="none" stroke="#000000" stroke-opacity="1" stroke-width="1" stroke-linecap="square" stroke-linejoin="bevel" transform="matrix(1.00282,0,0,1.00282,671.893,807.274)"
font-family="MS Shell Dlg 2" font-size="8.25" font-weight="400" font-style="normal" 
>
</g>

<g fill="none" stroke="#000000" stroke-opacity="1" stroke-width="1" stroke-linecap="square" stroke-linejoin="bevel" transform="matrix(1.00282,0,0,1.00282,625.261,26.0734)"
font-family="MS Shell Dlg 2" font-size="8.25" font-weight="400" font-style="normal" 
>
</g>

<g fill="none" stroke="#000000" stroke-opacity="1" stroke-width="1" stroke-linecap="square" stroke-linejoin="bevel" transform="matrix(1.00282,0,0,1.00282,625.261,26.0734)"
font-family="MS Shell Dlg 2" font-size="8.25" font-weight="400" font-style="normal" 
>
</g>

<g fill="none" stroke="#000000" stroke-opacity="1" stroke-width="1" stroke-linecap="square" stroke-linejoin="bevel" transform="matrix(1.00282,0,0,1.00282,625.261,26.0734)"
font-family="MS Shell Dlg 2" font-size="8.25" font-weight="400" font-style="normal" 
>
</g>

<g fill="none" stroke="#000000" stroke-opacity="1" stroke-width="1" stroke-linecap="square" stroke-linejoin="bevel" transform="matrix(1.00282,0,0,1.00282,625.261,26.0734)"
font-family="MS Shell Dlg 2" font-size="8.25" font-weight="400" font-style="normal" 
>
</g>

<g fill="none" stroke="#000000" stroke-opacity="1" stroke-width="1" stroke-linecap="square" stroke-linejoin="bevel" transform="matrix(1.00282,0,0,1.00282,625.261,26.0734)"
font-family="MS Shell Dlg 2" font-size="8.25" font-weight="400" font-style="normal" 
>
</g>

<g fill="none" stroke="#000000" stroke-opacity="1" stroke-width="1" stroke-linecap="square" stroke-linejoin="bevel" transform="matrix(1.00282,0,0,1.00282,625.261,26.0734)"
font-family="Sans" font-size="9" font-weight="400" font-style="normal" 
>
<text fill="#000000" fill-opacity="1" stroke="none" xml:space="preserve" x="0" y="0" font-family="Sans" font-size="9" font-weight="400" font-style="normal" 
 >Parser duration (nested function calls)</text>
</g>

<g fill="none" stroke="#000000" stroke-opacity="1" stroke-width="1" stroke-linecap="square" stroke-linejoin="bevel" transform="matrix(1.00282,0,0,1.00282,625.261,26.0734)"
font-family="MS Shell Dlg 2" font-size="8.25" font-weight="400" font-style="normal" 
>
</g>

<g fill="none" stroke="#000000" stroke-opacity="1" stroke-width="1" stroke-linecap="square" stroke-linejoin="bevel" transform="matrix(1,0,0,1,0,0)"
font-family="MS Shell Dlg 2" font-size="8.25" font-weight="400" font-style="normal" 
>
</g>
</g>
</svg>
